<svg version="1.1" id="Layer_1" xmlns="http://www.w3.org/2000/svg" xmlns:xlink="http://www.w3.org/1999/xlink" x="0px" y="0px"
	 width="100%" viewBox="0 0 818 1227" enable-background="new 0 0 818 1227" xml:space="preserve">
<path fill="none" opacity="1.000000" stroke="#000000" stroke-linecap="round" stroke-linejoin="round" stroke-width="17.000000"
	d="
M16.750000,165.500000 
	C16.916365,177.038025 14.377234,188.402496 14.891109,200.004822 
	C15.392087,211.315964 15.075400,222.667343 14.973620,233.999756 
	C14.905210,241.616592 15.535521,249.103668 17.426264,256.518799 
	C18.204773,259.571960 18.436796,262.831818 18.454865,266.000244 
	C18.550848,282.833038 18.653147,299.668793 18.416878,316.498840 
	C18.334255,322.384125 19.484980,327.957855 21.063652,333.481812 
	C22.057686,336.960022 22.504139,340.425598 22.502840,344.000000 
	C22.496546,361.333344 22.506779,378.666656 22.494629,396.000000 
	C22.492008,399.740265 22.874319,403.413788 23.994167,407.001831 
	C26.283279,414.336151 26.689751,421.855164 26.555784,429.500977 
	C26.345591,441.497284 26.702438,453.504791 26.419275,465.498108 
	C26.265018,472.031555 27.050482,478.347900 29.052874,484.482758 
	C30.821379,489.901001 30.950201,495.491882 30.890690,500.998810 
	C30.780489,511.196472 31.514584,521.224304 34.524979,530.992310 
	C36.196564,536.416077 34.672501,542.088440 36.017208,547.495728 
	C38.927032,559.196655 39.671947,571.272278 41.942131,583.106995 
	C43.785496,592.716675 45.292950,602.648926 46.607918,612.485596 
	C47.553596,619.559692 49.872311,626.444580 50.924362,633.511292 
	C53.289661,649.399292 56.636883,665.142883 61.284554,680.413391 
	C65.713913,694.966675 67.338806,710.438232 74.935982,724.035767 
	C77.300850,728.268433 77.683167,733.231567 77.942307,738.003113 
	C78.492577,748.135559 81.552368,757.646240 85.087059,766.966980 
	C88.833817,776.846985 90.792542,787.262024 94.926735,797.031006 
	C101.861359,813.417603 108.349083,829.993652 114.992706,846.502930 
	C117.869637,853.652100 120.614723,860.854553 123.528999,867.988159 
	C124.512733,870.396179 125.504242,872.916870 127.055641,874.957703 
	C134.723236,885.044006 139.001266,896.665222 143.129990,908.454468 
	C144.585846,912.611694 147.102295,916.514465 150.003983,919.996704 
	C155.976547,927.164001 157.663071,936.337463 161.570160,944.466248 
	C164.504807,950.572021 166.271851,957.116638 170.774658,962.682312 
	C174.619278,967.434448 177.137680,973.472412 179.824158,979.084167 
	C183.383514,986.519287 187.749985,993.235352 192.976959,999.519165 
	C196.298004,1003.511658 199.502396,1007.700989 201.432648,1012.526917 
	C205.250351,1022.071777 213.227951,1028.455444 219.062912,1036.454102 
	C220.690079,1038.684814 221.956680,1040.966431 223.054657,1043.476074 
	C225.193161,1048.363892 227.826126,1052.887573 232.441406,1056.084595 
	C234.616516,1057.591187 236.833344,1059.701660 237.885040,1062.051514 
	C242.541595,1072.455811 250.896255,1080.073730 257.451569,1089.035400 
	C261.462982,1094.519287 266.180786,1099.246094 270.836548,1104.155029 
	C283.575745,1117.586914 298.240631,1129.261230 308.588593,1144.941528 
	C310.292480,1147.523560 312.913971,1149.735229 315.562347,1151.400879 
	C319.074036,1153.609497 322.164185,1156.391235 324.367218,1159.591431 
	C330.652557,1168.721680 340.269012,1174.067627 347.935394,1181.566040 
	C355.243011,1188.713501 365.945160,1191.331665 371.989899,1200.007080 
	C378.146362,1208.842896 387.143768,1213.323853 397.002808,1216.491333 
	C407.516052,1219.868774 417.289642,1219.454102 427.142517,1213.225464 
	C433.597717,1209.144775 438.952881,1203.913818 445.059174,1199.583496 
	C460.984589,1188.289673 477.111145,1177.300049 491.534912,1164.037964 
	C495.264313,1160.608765 498.839478,1157.327271 501.116028,1152.555420 
	C504.069519,1146.364502 510.221313,1142.679321 514.458252,1137.466064 
	C528.177124,1120.585571 544.495544,1106.124878 558.634033,1089.614746 
	C565.002441,1082.178101 572.332947,1075.984985 576.842529,1066.665771 
	C581.879272,1056.257324 590.364929,1047.666992 597.725952,1038.685181 
	C607.988647,1026.162842 617.848633,1013.525330 626.118469,999.570190 
	C630.420288,992.310974 634.299316,984.971069 636.995911,976.998596 
	C637.995117,974.044617 639.594360,971.444885 641.494873,968.996033 
	C649.607666,958.542480 654.492676,946.371826 660.093506,934.544250 
	C664.460022,925.323181 669.451050,916.373657 674.612122,907.565674 
	C676.527344,904.297058 678.145386,900.975159 679.475403,897.490601 
	C682.400940,889.826233 685.493713,882.346497 690.931274,875.941650 
	C696.092224,869.862732 697.353088,862.072571 698.371643,854.482788 
	C698.890015,850.620605 699.992554,846.926392 702.128418,844.096924 
	C708.981934,835.017944 712.710144,824.668579 716.071472,814.022583 
	C717.799927,808.548035 719.505005,803.085510 722.326965,797.905701 
	C725.385254,792.292236 726.859558,785.892761 728.040588,779.507507 
	C729.972534,769.062683 734.571960,759.457092 738.124451,749.544617 
	C741.839539,739.178345 743.494751,728.250183 747.491089,717.996521 
	C752.357727,705.509949 754.714844,692.296265 758.579041,679.523926 
	C760.533020,673.065430 759.884827,666.496338 760.392822,659.991638 
	C760.863892,653.958740 762.237244,648.560608 764.689331,642.866211 
	C768.739685,633.460388 772.153809,623.501526 772.445862,612.998474 
	C772.668457,604.991516 773.238037,597.103760 775.961426,589.486206 
	C776.402954,588.251160 776.518921,586.826599 776.471008,585.501038 
	C776.033813,573.406372 779.809998,562.076538 782.333313,550.463806 
	C785.046326,537.977966 788.407959,525.505920 788.024536,512.499268 
	C787.657104,500.034943 787.728210,487.600677 791.436035,475.480438 
	C792.056335,473.452576 791.971375,471.167053 791.977661,468.999939 
	C792.020386,454.333405 791.932373,439.666199 792.033875,425.000244 
	C792.073486,419.282776 792.454102,413.556213 794.013916,408.003906 
	C795.211914,403.739563 795.538879,399.414032 795.526672,394.999939 
	C795.467529,373.666748 795.424683,352.332916 795.541748,331.000244 
	C795.581604,323.734833 796.564819,316.585602 798.357544,309.464142 
	C799.738708,303.977356 800.278931,298.176880 800.409302,292.497925 
	C800.699890,279.837921 801.025269,267.137451 800.323303,254.509827 
	C799.818604,245.430161 798.977844,236.308640 801.158447,227.539413 
	C804.504883,214.081818 803.071289,200.524948 803.497253,186.999908 
	C803.518250,186.333908 803.541321,185.663712 803.493835,185.000443 
	C802.721130,174.202072 800.839905,170.457275 788.999695,170.992737 
	C784.334961,171.203705 779.665466,171.304993 775.000305,171.507660 
	C769.914062,171.728622 765.206299,170.632675 761.531738,166.968155 
	C757.025696,162.474472 751.259460,161.723907 745.497803,161.609818 
	C739.678955,161.494537 734.432617,159.904541 728.935913,158.207596 
	C719.771240,155.378296 710.248352,153.452744 701.089478,150.702103 
	C691.273071,147.754028 680.803955,147.245239 671.456970,142.586334 
	C669.588379,141.654968 667.096191,142.073837 665.010925,141.462708 
	C644.773010,135.531601 624.081482,131.219986 604.447327,123.127800 
	C588.902588,116.721069 573.395752,110.424034 558.333679,102.829903 
	C550.119080,98.688194 542.217285,92.718376 531.998352,92.802429 
	C527.888611,92.836243 524.790039,88.938164 521.543030,86.443962 
	C513.765320,80.469444 505.036438,76.182457 496.595947,71.332985 
	C490.576538,67.874542 484.608124,64.717117 478.077362,62.291672 
	C474.478607,60.955124 471.501526,57.680355 468.533813,54.963070 
	C462.047455,49.024048 454.346375,45.299625 446.614532,41.279736 
	C436.480927,36.011169 427.110870,29.251719 417.523499,22.964159 
	C412.721954,19.815235 408.819183,19.458574 403.384338,22.812586 
	C382.517883,35.689941 361.516083,48.381077 340.359314,60.759521 
	C325.613922,69.386787 310.806335,77.956642 295.926117,86.369339 
	C289.534058,89.983192 281.997192,91.563316 275.577881,95.139786 
	C265.666046,100.662086 254.889267,104.441635 245.387619,110.832932 
	C242.093384,113.048805 237.404922,113.081474 233.518433,114.548820 
	C223.248672,118.426155 212.943253,122.311310 203.530884,128.050659 
	C197.776611,131.559418 191.087875,131.382675 184.990601,133.472565 
	C174.375809,137.110870 163.761200,140.820572 152.498230,141.982788 
	C148.891922,142.354935 145.846863,143.812271 142.979736,145.973114 
	C138.128494,149.629349 132.607285,151.037888 126.515182,151.650894 
	C117.315155,152.576614 108.063332,152.140182 98.907387,155.225128 
	C89.321732,158.454865 78.943741,159.259201 69.018250,161.578125 
	C61.426445,163.351852 53.948063,165.672272 46.521584,168.066940 
	C42.723358,169.291656 39.134907,170.891403 35.003410,171.076248 
	C29.081955,171.341171 23.091574,171.589737 17.500000,174.000000 
"/>
<path fill="none" opacity="1.000000" stroke="#000000" stroke-linecap="round" stroke-linejoin="round" stroke-width="5.000000"
	d="
M478.500000,456.000000 
	C475.959595,457.343353 473.196808,456.858948 470.501556,457.025146 
	C467.357422,457.219055 465.336578,457.767120 464.233307,461.929291 
	C462.092285,470.006378 464.501892,476.381104 468.414612,483.050110 
	C472.752319,490.443451 478.409302,497.124329 481.001404,505.499573 
	C481.157196,506.002930 481.529449,506.524292 481.471008,506.996399 
	C480.318024,516.306946 485.618378,524.649536 485.141968,534.007202 
	C484.244629,551.632629 479.280548,567.777283 466.254730,579.732788 
	C458.406006,586.936646 448.559174,592.118958 438.044495,595.633118 
	C429.668121,598.432739 421.506287,599.382568 413.000000,597.000000 
"/>
<path fill="none" opacity="1.000000" stroke="#000000" stroke-linecap="round" stroke-linejoin="round" stroke-width="7.000000"
	d="
M347.500000,297.000000 
	C341.816498,299.214203 335.926117,300.871521 333.785065,307.934845 
	C333.200348,309.863861 330.088501,311.140015 327.981934,312.471405 
	C323.336029,315.407715 320.589325,319.398590 320.507721,325.000122 
	C320.461487,328.175079 318.819916,331.531311 316.866516,332.793427 
	C304.267670,340.933960 300.521545,353.173431 300.059387,367.001984 
	C299.747833,376.324921 299.525940,385.697968 300.139862,394.990753 
	C300.698822,403.451447 304.984924,410.873230 308.359314,418.561737 
	C311.988861,426.831543 316.017517,434.773590 322.069183,441.437164 
	C326.892883,446.748627 332.467987,451.371521 337.427032,456.569611 
	C339.165771,458.392120 340.860718,458.270477 342.471191,457.443878 
	C353.470825,451.798248 363.693054,445.203918 370.014221,434.008026 
	C374.124725,426.727692 373.938293,426.209534 369.042328,419.966797 
	C359.754517,408.123962 355.410370,394.497864 354.361481,379.509705 
	C353.847198,372.160522 356.756073,365.244751 355.962952,358.004059 
	C355.762451,356.173462 356.958160,355.327911 358.026093,354.535126 
	C364.885681,349.442841 368.753479,341.641510 374.931915,335.926392 
	C375.603271,335.305359 375.882599,333.341614 375.414520,332.550598 
	C371.049713,325.174530 369.045258,316.882843 365.887787,309.045197 
	C363.709534,303.638184 359.877808,299.322968 353.497559,298.519409 
	C349.567566,298.024445 347.313263,296.339813 346.865570,292.013916 
	C346.598999,289.438019 345.202393,286.894043 343.960114,284.520874 
	C340.873291,278.624023 341.062286,272.884369 343.955231,266.978058 
	C345.362518,264.104889 345.871216,261.423920 344.258392,257.882324 
	C342.601990,254.245087 341.931610,249.794876 342.500000,245.500000 
"/>
<path fill="none" opacity="1.000000" stroke="#000000" stroke-linecap="round" stroke-linejoin="round" stroke-width="6.000000"
	d="
M394.500000,474.000000 
	C399.753876,478.636292 404.337280,483.869202 408.528900,489.478394 
	C410.153076,491.651825 410.118774,493.617188 409.042938,496.019226 
	C406.099884,502.590088 404.293549,509.575226 402.628326,516.530701 
	C401.610535,520.781921 399.880859,524.691162 397.333038,527.866028 
	C394.883759,530.918030 394.660767,533.637268 395.479980,537.004883 
	C396.082092,539.480042 396.437897,542.014343 397.012299,544.497131 
	C398.441101,550.673279 398.920044,556.170105 392.612610,560.658264 
	C387.998596,563.941406 386.910950,570.478088 389.602203,574.938354 
	C392.546967,579.818787 393.784424,585.037842 394.487396,590.501648 
	C395.779633,600.545044 396.933136,601.882385 406.919067,604.092773 
	C408.733368,602.046082 410.687683,599.841492 412.500000,597.797058 
	C412.500000,597.166687 412.640869,596.724731 412.479675,596.515686 
	C406.468811,588.719238 406.909637,579.547058 407.071503,570.501282 
	C407.119232,567.835083 406.379822,566.311951 404.059662,564.901794 
	C401.785461,563.519592 399.999969,561.333374 397.999969,559.500000 
"/>
<path fill="none" opacity="1.000000" stroke="#000000" stroke-linecap="round" stroke-linejoin="round" stroke-width="18.000000"
	d="
M670.000000,642.500000 
	C667.401550,646.495239 664.415405,650.162292 661.018860,653.519104 
	C658.546265,655.962769 659.275024,659.565002 658.092346,662.536743 
	C656.089417,667.569641 654.629578,672.821716 653.007019,678.002197 
	C648.154358,693.496155 643.199890,708.960083 638.548523,724.514526 
	C635.615356,734.323303 631.698792,743.556152 624.432190,750.933167 
	C622.202332,753.196838 619.166687,754.666687 616.500000,756.500000 
"/>
<path fill="none" opacity="1.000000" stroke="#000000" stroke-linecap="round" stroke-linejoin="round" stroke-width="11.000000"
	d="
M452.500000,323.000000 
	C456.854065,329.319153 460.676208,335.981476 465.452759,342.037262 
	C472.358643,350.792542 476.098083,361.371307 481.425415,371.041077 
	C483.869415,375.477173 483.067871,380.624756 482.954346,385.498932 
	C482.875671,388.878021 483.311066,392.033234 484.991119,395.005005 
	C488.618439,401.421112 485.833954,407.750702 484.336761,413.960632 
	C483.929688,415.648987 481.658813,416.913483 479.511108,417.538177 
	C472.136658,419.683105 466.699707,424.262970 462.966888,430.981598 
	C461.830719,433.026611 460.483917,434.504608 457.506653,434.643219 
	C451.336548,434.930481 446.493835,438.384369 441.362823,441.793549 
	C432.300201,447.814911 423.005524,454.314758 410.997406,452.517395 
	C408.868683,452.198730 407.235504,452.870697 405.419037,454.404083 
	C399.363037,459.516052 396.002045,466.058258 394.192810,473.300293 
	C389.834412,475.153625 385.822815,473.426178 382.041626,472.353333 
	C376.090088,470.664703 371.255676,471.836426 367.016663,476.016876 
	C362.821533,480.154022 357.680054,482.850739 354.078491,488.217102 
	C350.431458,493.651337 346.848480,498.941895 344.582092,505.030548 
	C343.683167,507.445587 342.528473,508.629608 340.060120,509.645966 
	C335.415039,511.558716 330.906403,513.776917 326.000000,515.000000 
"/>
<path fill="none" opacity="1.000000" stroke="#000000" stroke-linecap="round" stroke-linejoin="round" stroke-width="19.000000"
	d="
M223.500000,622.500000 
	C210.996536,628.517151 204.984833,639.771912 201.169800,652.052734 
	C196.961212,665.600525 191.945801,678.891846 188.138809,692.538696 
	C185.695969,701.295532 183.030457,709.948975 179.961426,718.486145 
	C178.874390,721.510010 180.561340,725.009644 176.674026,727.747131 
	C173.045273,730.302673 169.632385,729.840454 165.998550,729.953186 
	C163.506134,730.030640 161.000000,729.666687 158.500000,729.500000 
"/>
<path fill="none" opacity="1.000000" stroke="#000000" stroke-linecap="round" stroke-linejoin="round" stroke-width="6.000000"
	d="
M429.000000,848.500000 
	C427.812195,851.836426 425.106873,853.287781 422.025116,854.560791 
	C418.796173,855.894592 415.483734,857.036194 412.460449,858.937134 
	C409.045288,861.084473 406.181061,863.188293 404.823853,867.443848 
	C403.731537,870.868896 401.253937,873.939819 398.486694,876.485535 
	C396.193329,878.595154 394.485107,880.989929 393.462860,883.987305 
	C391.580872,889.505554 388.970032,894.722656 386.588867,900.039795 
	C383.276672,907.435730 378.153931,911.056152 370.006378,911.596130 
	C365.547607,911.891602 361.440033,909.446350 357.000000,910.500000 
"/>
<path fill="none" opacity="1.000000" stroke="#000000" stroke-linecap="round" stroke-linejoin="round" stroke-width="18.000000"
	d="
M623.000000,656.500000 
	C619.617798,656.244202 617.392090,657.626709 616.494751,660.998596 
	C614.009888,670.335938 611.845642,679.777039 608.909851,688.971191 
	C605.472656,699.735840 602.343323,710.575867 599.532654,721.508423 
	C597.205566,730.559753 593.713074,739.277893 591.972229,748.494751 
	C591.542480,750.770447 590.419678,752.702393 588.000000,753.500000 
"/>
<path fill="none" opacity="1.000000" stroke="#000000" stroke-linecap="round" stroke-linejoin="round" stroke-width="19.000000"
	d="
M247.500000,629.500000 
	C247.195648,636.829651 242.961288,643.049438 241.594864,650.018616 
	C239.360107,661.416321 234.631042,672.045959 232.066208,683.402039 
	C230.295868,691.240417 228.656784,699.416504 225.480835,706.991943 
	C224.264633,709.893005 223.416870,712.833313 223.499878,716.000000 
	C223.540131,717.535645 223.360931,719.144592 221.975723,719.958679 
	C219.077209,721.662231 219.483170,724.363037 219.500000,727.000000 
"/>
<path fill="none" opacity="1.000000" stroke="#000000" stroke-linecap="round" stroke-linejoin="round" stroke-width="3.000000"
	d="
M407.500000,100.000000 
	C391.644379,102.996872 378.670990,111.440727 367.064362,122.070290 
	C358.944580,129.506561 350.929749,137.205978 345.537842,147.020798 
	C342.010590,153.441498 339.098358,160.153870 338.000000,167.500000 
"/>
<path fill="none" opacity="1.000000" stroke="#000000" stroke-linecap="round" stroke-linejoin="round" stroke-width="6.000000"
	d="
M339.000000,458.500000 
	C338.926941,462.685791 336.453308,465.674835 333.451630,467.935791 
	C324.455902,474.711761 317.482971,483.361694 310.585724,492.067932 
	C309.205109,493.810669 307.558990,495.211823 305.929291,496.403320 
	C298.185059,502.065186 296.499573,510.356659 295.541901,519.004639 
	C295.268402,521.474365 295.561279,524.001831 295.486725,526.499573 
	C295.348206,531.139282 296.801025,535.050293 300.500000,538.000000 
"/>
<path fill="none" opacity="1.000000" stroke="#000000" stroke-linecap="round" stroke-linejoin="round" stroke-width="20.000000"
	d="
M328.500000,650.500000 
	C328.455353,654.226013 329.486359,658.319763 325.008942,660.518188 
	C324.608459,660.714783 324.069122,661.144043 324.038422,661.503296 
	C323.148987,671.913696 318.771790,681.446411 316.551147,691.511292 
	C315.484222,696.347046 312.863617,700.594238 311.873016,705.474243 
	C311.399872,707.804993 310.640686,710.044922 310.435638,712.494629 
	C309.824463,719.794678 306.330841,722.894897 299.006866,722.398499 
	C296.526855,722.230347 293.589722,724.910339 291.500000,721.500000 
"/>
<path fill="none" opacity="1.000000" stroke="#000000" stroke-linecap="round" stroke-linejoin="round" stroke-width="6.000000"
	d="
M477.500000,262.500000 
	C477.351807,268.177551 475.953491,273.772949 476.441345,279.505005 
	C476.523468,280.469635 476.043213,281.648010 475.461517,282.472870 
	C473.536713,285.202484 472.072479,289.078033 472.798706,291.406830 
	C475.215759,299.157318 469.720184,303.268250 466.492706,308.495483 
	C465.035675,310.855377 463.500000,313.166687 462.000000,315.500000 
"/>
<path fill="none" opacity="1.000000" stroke="#000000" stroke-linecap="round" stroke-linejoin="round" stroke-width="10.000000"
	d="
M439.000000,333.000000 
	C436.964661,339.750305 437.906006,346.655090 438.034210,353.499359 
	C438.200500,362.378906 437.585388,371.007141 430.450378,377.445007 
	C427.891357,379.753998 427.737915,382.512970 427.471283,385.497437 
	C427.083221,389.840790 427.440948,394.571442 425.789825,398.409576 
	C422.983917,404.931946 418.068878,409.304443 410.000000,406.500000 
"/>
<path fill="none" opacity="1.000000" stroke="#000000" stroke-linecap="round" stroke-linejoin="round" stroke-width="5.000000"
	d="
M156.500000,377.000000 
	C157.580872,383.745636 162.230820,388.033112 169.000732,388.489044 
	C174.046539,388.828888 179.947815,386.598755 182.485260,378.995087 
	C185.096603,371.169983 176.037842,363.527313 168.509995,364.572052 
	C161.976257,365.478851 158.073318,368.380676 156.500000,376.500000 
"/>
<path fill="none" opacity="1.000000" stroke="#000000" stroke-linecap="round" stroke-linejoin="round" stroke-width="3.000000"
	d="
M442.500000,106.500000 
	C462.776184,118.736656 480.531097,133.346481 490.091278,155.961411 
	C491.553864,159.421249 492.496399,162.945648 493.500000,166.500000 
"/>
<path fill="none" opacity="1.000000" stroke="#000000" stroke-linecap="round" stroke-linejoin="round" stroke-width="10.000000"
	d="
M410.500000,492.500000 
	C413.333344,493.166656 416.176422,493.794678 418.998291,494.506744 
	C430.701141,497.459869 434.409088,507.221130 437.964386,517.012939 
	C439.509796,521.269226 440.557465,525.705933 442.088165,529.968323 
	C442.410889,530.866882 442.606873,531.719482 442.459381,532.492249 
	C439.564941,547.657776 431.776917,560.171265 414.989136,563.951782 
	C412.273682,564.563232 410.075104,566.187744 407.500000,567.000000 
"/>
<path fill="none" opacity="1.000000" stroke="#000000" stroke-linecap="round" stroke-linejoin="round" stroke-width="19.000000"
	d="
M494.750000,651.500000 
	C494.833344,651.833313 494.892181,652.175110 495.003693,652.498718 
	C496.608246,657.155945 493.400543,661.198914 492.087524,664.851746 
	C488.087402,675.979553 485.685638,687.610962 481.084351,698.535522 
	C478.925323,703.661499 477.065674,709.070923 476.195404,714.531128 
	C475.532410,718.690918 472.427429,720.557495 470.500000,723.500000 
"/>
<path fill="none" opacity="1.000000" stroke="#000000" stroke-linecap="round" stroke-linejoin="round" stroke-width="18.000000"
	d="
M722.000000,653.000000 
	C723.446594,648.681396 719.110962,648.734741 717.435852,648.201416 
	C710.104248,645.867249 702.738953,646.391418 696.024658,650.539917 
	C692.736023,652.571960 692.341980,657.159912 695.038025,660.469055 
	C696.141235,661.823120 697.600342,662.921204 699.010864,663.985657 
	C707.961243,670.740540 710.488464,679.430603 707.004700,690.001526 
	C704.480713,697.660339 701.934265,705.312866 699.538025,713.011841 
	C698.771179,715.475952 697.354858,717.408508 695.474670,718.969482 
	C692.292480,721.611633 688.794678,723.880737 684.976562,725.442749 
	C680.883850,727.117310 677.090515,725.562866 673.500000,723.500000 
"/>
<path fill="none" opacity="1.000000" stroke="#000000" stroke-linecap="round" stroke-linejoin="round" stroke-width="17.000000"
	d="
M533.500000,658.500000 
	C539.194214,659.424622 544.715271,657.891418 549.363037,655.258240 
	C553.037048,653.176514 556.824890,652.844849 560.530273,652.165222 
	C565.936096,651.173828 570.454346,654.272705 574.442993,657.568970 
	C576.544189,659.305542 576.219116,661.863831 575.566345,664.516296 
	C572.373169,677.490784 568.416931,690.238220 564.499695,702.999878 
	C562.980164,707.950317 560.025085,712.509094 560.485657,718.001221 
	C560.634888,719.781372 559.031067,720.684143 558.250000,722.000000 
"/>
<path fill="none" opacity="1.000000" stroke="#000000" stroke-linecap="round" stroke-linejoin="round" stroke-width="19.000000"
	d="
M345.000000,725.500000 
	C345.272064,723.523193 343.988556,721.098450 346.958862,719.898193 
	C347.658325,719.615540 347.777924,718.060120 348.078461,717.022705 
	C353.302917,698.991150 358.615021,680.984375 364.045441,663.013733 
	C365.077026,659.599976 367.438171,656.608643 371.015991,656.116150 
	C379.225250,654.986267 386.981934,651.376343 395.504517,651.930725 
	C398.877899,652.150208 401.906525,653.284363 404.424561,655.104370 
	C407.915497,657.627625 408.804962,661.163818 407.073212,665.529053 
	C404.139832,672.923218 401.283051,680.390320 399.098511,688.028198 
	C396.456970,697.263672 393.163422,706.292969 390.629211,715.535400 
	C389.083618,721.172241 392.441681,724.329285 397.012146,725.966125 
	C400.713928,727.291748 404.639099,726.983704 408.500000,727.000000 
"/>
<path fill="none" opacity="1.000000" stroke="#000000" stroke-linecap="round" stroke-linejoin="round" stroke-width="6.000000"
	d="
M376.000000,335.500000 
	C380.916351,337.839508 386.171539,339.365326 390.599152,342.874908 
	C392.827362,344.641113 393.773102,346.564545 393.953156,349.003448 
	C394.310059,353.837677 394.212280,358.623474 393.807892,363.525391 
	C393.225891,370.580597 392.318817,377.994507 394.819092,384.975250 
	C395.885284,387.952118 394.790344,390.496674 393.914307,392.969635 
	C391.767975,399.028687 390.668488,405.358887 388.813751,411.443237 
	C386.570679,418.801422 381.332489,424.016357 373.500000,426.000000 
"/>
<path fill="none" opacity="1.000000" stroke="#000000" stroke-linecap="round" stroke-linejoin="round" stroke-width="8.000000"
	d="
M343.000000,509.500000 
	C345.250854,512.516479 345.087616,516.026001 344.992004,519.499756 
	C344.645660,532.077271 347.499725,543.419922 357.521454,551.974854 
	C358.391998,552.718018 358.326843,553.580994 358.517090,554.496460 
	C360.814301,565.550110 362.564941,576.697754 361.349731,587.983826 
	C360.978271,591.433899 361.508881,594.002930 364.030609,595.960571 
	C370.290955,600.820496 373.077576,606.946777 373.788147,614.974487 
	C374.286957,620.609802 376.109131,626.415039 379.355347,631.590698 
	C380.989502,634.196167 382.658173,635.429382 385.500000,635.500000 
"/>
<path fill="none" opacity="1.000000" stroke="#000000" stroke-linecap="round" stroke-linejoin="round" stroke-width="18.000000"
	d="
M450.000000,659.000000 
	C450.333344,659.500000 451.052094,660.112915 450.943573,660.483459 
	C448.349487,669.338074 446.153717,678.354431 442.844147,686.939941 
	C440.249298,693.671265 438.908234,700.639832 437.001312,707.500366 
	C436.492432,709.331238 436.208557,711.256531 435.464325,712.984619 
	C432.025330,720.970032 436.656952,728.091248 445.499207,727.950439 
	C450.583435,727.869568 455.657379,727.351562 460.507660,725.520325 
	C463.805603,724.275146 467.187683,723.340454 470.750000,724.500000 
"/>
<path fill="none" opacity="1.000000" stroke="#000000" stroke-linecap="round" stroke-linejoin="round" stroke-width="19.000000"
	d="
M283.750000,651.500000 
	C284.423584,653.727112 284.294800,656.024780 282.457886,657.445557 
	C277.466034,661.306396 277.224182,667.264954 275.566254,672.520874 
	C271.854553,684.287415 268.511200,696.170044 264.993011,707.997925 
	C263.971985,711.430542 264.971466,715.138794 263.500000,718.500000 
"/>
<path fill="none" opacity="1.000000" stroke="#000000" stroke-linecap="round" stroke-linejoin="round" stroke-width="19.000000"
	d="
M534.500000,650.500000 
	C535.067139,654.303467 534.264038,657.842163 531.428345,660.421204 
	C529.841492,661.864380 530.683472,663.526367 530.088257,665.034851 
	C524.429688,679.374573 521.853333,694.713806 515.970825,708.987976 
	C514.964233,711.430420 515.815125,714.008179 514.623657,716.557800 
	C512.321289,721.484680 509.301605,724.768860 503.500000,724.500000 
"/>
<path fill="none" opacity="1.000000" stroke="#000000" stroke-linecap="round" stroke-linejoin="round" stroke-width="7.000000"
	d="
M385.999969,481.000000 
	C380.333313,490.333313 373.359406,499.155518 369.442444,509.173004 
	C366.657806,516.294617 365.215454,524.589111 366.742676,533.046448 
	C367.884918,539.371765 364.777435,545.339722 360.000000,550.000000 
"/>
<path fill="none" opacity="1.000000" stroke="#000000" stroke-linecap="round" stroke-linejoin="round" stroke-width="5.000000"
	d="
M381.500000,889.500000 
	C383.777008,882.024963 387.489532,875.086426 389.551025,867.513916 
	C391.147797,861.648315 388.693756,854.392700 383.500000,851.000000 
	C380.658417,849.143799 374.144165,850.399353 369.990021,853.486572 
	C366.572601,856.026306 365.659302,858.603027 367.316467,863.068115 
	C370.213440,870.873840 371.266937,878.981995 367.104187,887.053711 
	C365.468323,890.225769 365.033264,894.009949 363.989960,897.497009 
	C363.081451,900.533508 361.504517,903.086914 358.500000,904.500000 
"/>
<path fill="none" opacity="1.000000" stroke="#000000" stroke-linecap="round" stroke-linejoin="round" stroke-width="6.000000"
	d="
M346.000000,493.000000 
	C342.613007,491.127472 340.165497,488.179169 337.523407,485.477112 
	C335.555176,483.464142 333.107361,481.880371 330.545654,482.651642 
	C327.611145,483.535156 326.329529,486.274475 325.937317,489.492371 
	C325.344635,494.355042 325.848694,499.422882 323.526672,504.013489 
	C323.325287,504.411621 323.311646,505.108521 323.527954,505.483887 
	C327.412048,512.224304 322.654633,518.486511 322.438263,524.997925 
	C322.179321,532.790161 316.741058,536.793274 310.499512,539.999084 
	C309.836548,540.339600 309.166687,540.666687 308.500000,541.000000 
"/>
<path fill="none" opacity="1.000000" stroke="#000000" stroke-linecap="round" stroke-linejoin="round" stroke-width="19.000000"
	d="
M166.500000,656.500000 
	C154.931000,649.682068 141.881699,658.776428 138.630264,668.045715 
	C135.370804,677.337769 133.355057,687.058960 130.408661,696.471436 
	C129.205170,700.316101 130.214996,703.733948 132.158768,706.383545 
	C134.719131,709.873718 136.683685,713.945374 140.470520,716.542969 
	C143.514740,718.631165 145.703247,722.133240 144.758667,725.430847 
	C143.629395,729.373230 139.716553,731.688354 135.495438,731.914795 
	C129.806427,732.219910 123.681824,733.424805 118.624352,730.298828 
	C115.812897,728.561035 113.446579,728.046997 110.500000,728.500000 
"/>
<path fill="none" opacity="1.000000" stroke="#000000" stroke-linecap="round" stroke-linejoin="round" stroke-width="4.000000"
	d="
M321.000000,337.500000 
	C324.060059,342.272827 324.968323,347.920959 327.005707,353.096161 
	C328.747009,357.519257 325.419373,362.518829 321.858307,364.199860 
	C315.216400,367.335205 317.300934,372.771454 316.658203,377.521393 
	C316.563477,378.221161 316.754944,379.513062 317.000000,380.500000 
"/>
<path fill="none" opacity="1.000000" stroke="#000000" stroke-linecap="round" stroke-linejoin="round" stroke-width="6.000000"
	d="
M412.500000,742.500000 
	C412.046722,745.817200 412.593353,749.047546 414.053589,751.973267 
	C415.813660,755.499573 415.805450,758.495667 414.886871,762.586853 
	C413.618103,768.237610 413.928040,774.524109 414.994232,780.501038 
	C415.201080,781.660583 415.738159,782.950684 415.439087,783.982361 
	C411.172546,798.699829 404.061340,811.131226 388.490204,816.471497 
	C386.896667,817.018005 385.166656,817.166626 383.500000,817.499939 
"/>
<path fill="none" opacity="1.000000" stroke="#000000" stroke-linecap="round" stroke-linejoin="round" stroke-width="4.000000"
	d="
M474.000000,299.000000 
	C485.708740,297.071869 488.287598,294.316956 489.506042,282.500610 
	C489.798676,279.663086 490.167908,276.833496 490.499695,273.999969 
	C491.213379,267.905731 487.941620,263.791168 482.912231,261.712341 
	C480.065277,260.535614 476.307037,261.233032 473.005737,261.558228 
	C467.016571,262.148163 462.266998,263.979187 460.274261,270.935333 
	C458.821045,276.008118 455.908600,280.939636 451.000000,284.000000 
"/>
<path fill="none" opacity="1.000000" stroke="#000000" stroke-linecap="round" stroke-linejoin="round" stroke-width="6.000000"
	d="
M400.500000,291.500000 
	C399.465820,294.516876 398.431671,297.533722 397.370789,300.628632 
	C390.093048,298.094543 383.288666,294.677460 379.668304,287.909943 
	C376.295105,281.604401 372.236908,275.688599 369.372498,269.055054 
	C366.701233,262.868774 359.914337,259.887878 353.502472,261.014099 
	C351.153778,261.426636 348.833344,262.000000 346.500000,262.500000 
"/>
<path fill="none" opacity="1.000000" stroke="#000000" stroke-linecap="round" stroke-linejoin="round" stroke-width="4.000000"
	d="
M458.500000,191.500000 
	C446.506042,188.294464 435.481537,190.973267 424.995239,196.991714 
	C423.307495,197.960373 421.508148,198.640991 419.500000,198.500000 
"/>
<path fill="none" opacity="1.000000" stroke="#000000" stroke-linecap="round" stroke-linejoin="round" stroke-width="5.000000"
	d="
M500.500000,450.000000 
	C497.595673,458.681824 489.549194,462.120270 482.953400,466.936157 
	C477.699677,470.772125 471.216003,471.373535 465.000000,472.500000 
"/>
<path fill="none" opacity="1.000000" stroke="#000000" stroke-linecap="round" stroke-linejoin="round" stroke-width="6.000000"
	d="
M521.500000,353.000000 
	C528.495239,361.503845 528.067261,371.520050 526.878784,381.485535 
	C526.377747,385.686432 523.039917,388.509827 519.500000,390.750000 
"/>
<path fill="none" opacity="1.000000" stroke="#000000" stroke-linecap="round" stroke-linejoin="round" stroke-width="4.000000"
	d="
M411.500000,198.500000 
	C409.616730,197.776505 407.770935,197.058548 405.958893,196.075806 
	C396.074066,190.714935 385.631409,188.580093 374.500000,191.500000 
"/>
<path fill="none" opacity="1.000000" stroke="#000000" stroke-linecap="round" stroke-linejoin="round" stroke-width="4.000000"
	d="
M552.500061,907.500000 
	C552.833374,908.833313 552.887024,910.329529 553.551453,911.470032 
	C555.707092,915.170349 560.069397,916.403015 563.500000,914.500000 
	C567.119751,912.492188 568.980042,908.073792 567.499939,905.000000 
	C565.426392,900.693787 561.330444,899.625305 556.000000,902.000000 
"/>
<path fill="none" opacity="1.000000" stroke="#000000" stroke-linecap="round" stroke-linejoin="round" stroke-width="6.000000"
	d="
M386.500000,233.500000 
	C389.717072,228.596268 389.538116,223.378235 388.045807,217.987320 
	C387.846680,217.267975 387.785492,216.641663 386.998230,216.510605 
	C382.629059,215.783234 379.409424,212.354187 375.439270,211.210815 
	C370.842926,209.887100 366.068756,211.831299 363.116913,215.591782 
	C359.767181,219.859192 357.819092,224.914291 360.500000,230.500000 
"/>
<path fill="none" opacity="1.000000" stroke="#000000" stroke-linecap="round" stroke-linejoin="round" stroke-width="2.000000"
	d="
M586.500000,868.500000 
	C576.166687,875.333313 565.794250,882.109192 555.547974,889.070618 
	C554.226746,889.968262 552.857178,890.704834 551.500000,891.500000 
"/>
<path fill="none" opacity="1.000000" stroke="#000000" stroke-linecap="round" stroke-linejoin="round" stroke-width="9.000000"
	d="
M416.500000,408.000000 
	C419.413788,418.645111 413.550903,427.108826 409.458588,435.980896 
	C408.400574,438.274567 406.833313,440.333313 405.500000,442.500000 
"/>
<path fill="none" opacity="1.000000" stroke="#000000" stroke-linecap="round" stroke-linejoin="round" stroke-width="3.000000"
	d="
M505.500000,321.500000 
	C511.252441,323.588043 515.232788,327.158051 516.606995,333.476746 
	C517.109619,335.787811 518.620178,337.986633 520.044922,339.967712 
	C522.903015,343.941986 523.190369,348.070496 521.567993,352.321350 
	C515.486145,353.352936 509.432312,354.302490 507.000000,346.500000 
"/>
<path fill="none" opacity="1.000000" stroke="#000000" stroke-linecap="round" stroke-linejoin="round" stroke-width="4.000000"
	d="
M449.000000,658.000000 
	C442.212646,652.362061 435.052063,651.314880 426.958801,655.418701 
	C421.243042,658.316956 414.744598,658.820374 408.500000,660.000000 
"/>
<path fill="none" opacity="1.000000" stroke="#000000" stroke-linecap="round" stroke-linejoin="round" stroke-width="3.000000"
	d="
M443.500000,1003.500000 
	C446.833862,1001.933533 448.106293,999.470337 446.475342,996.011597 
	C445.013245,992.911072 438.128479,989.993347 435.066895,991.625488 
	C432.757874,992.856506 429.905151,993.755188 428.930817,996.979065 
	C427.695404,1001.066772 429.051453,1002.937317 435.500000,1005.000000 
"/>
<path fill="none" opacity="1.000000" stroke="#000000" stroke-linecap="round" stroke-linejoin="round" stroke-width="6.000000"
	d="
M448.000000,747.000000 
	C447.178009,747.502808 447.515503,748.316650 447.514221,749.000000 
	C447.507385,752.603027 447.481628,755.469421 443.679626,758.245972 
	C437.998077,762.395142 437.484772,767.898621 441.096008,773.437378 
	C442.421509,775.470398 442.659821,777.313721 442.515808,779.501038 
	C442.300507,782.771362 442.474731,785.877869 444.917114,788.575073 
	C445.727692,789.470093 445.928467,789.095825 446.500000,788.750000 
"/>
<path fill="none" opacity="1.000000" stroke="#000000" stroke-linecap="round" stroke-linejoin="round" stroke-width="6.000000"
	d="
M381.500000,826.000000 
	C370.757294,830.700500 360.126709,828.224609 349.500000,825.500000 
"/>
<path fill="none" opacity="1.000000" stroke="#000000" stroke-linecap="round" stroke-linejoin="round" stroke-width="8.000000"
	d="
M479.000000,148.500000 
	C478.906403,151.337631 479.200592,154.177444 478.538879,157.009079 
	C478.045624,159.119705 476.912506,161.145859 477.965302,163.515411 
	C480.507111,169.236389 478.713287,175.217361 478.291290,180.984726 
	C478.000824,184.953857 478.374664,188.543930 480.595337,191.426544 
	C485.242584,197.459030 484.323029,203.888809 482.974518,210.494797 
	C482.830505,211.200119 481.886841,212.003387 482.066376,212.474716 
	C485.163910,220.607559 482.099945,229.323334 484.500000,237.500000 
"/>
<path fill="none" opacity="1.000000" stroke="#000000" stroke-linecap="round" stroke-linejoin="round" stroke-width="8.000000"
	d="
M351.000000,910.500000 
	C349.965485,912.500000 349.668884,914.159302 350.852753,916.572266 
	C353.185730,921.327087 354.787231,926.460144 356.457733,931.513977 
	C357.575867,934.896729 356.511627,938.234497 355.500000,941.500000 
"/>
<path fill="none" opacity="1.000000" stroke="#000000" stroke-linecap="round" stroke-linejoin="round" stroke-width="3.000000"
	d="
M385.000000,441.500000 
	C383.185425,447.380768 380.315002,452.680298 374.942993,455.905029 
	C371.768738,457.810394 371.573822,460.095062 372.524170,462.992065 
	C373.411163,465.695801 374.500000,468.333344 375.500000,471.000000 
"/>
<path fill="none" opacity="1.000000" stroke="#000000" stroke-linecap="round" stroke-linejoin="round" stroke-width="6.000000"
	d="
M310.000000,511.500000 
	C305.695831,514.086365 305.764832,518.369812 306.057068,522.495972 
	C306.506805,528.844666 307.333313,535.166687 308.000000,541.500000 
"/>
<path fill="none" opacity="1.000000" stroke="#000000" stroke-linecap="round" stroke-linejoin="round" stroke-width="6.000000"
	d="
M466.500000,318.000000 
	C474.460510,320.801239 480.160736,327.412354 487.941315,330.641449 
	C490.826355,331.838837 491.604675,335.364319 492.000000,338.500000 
"/>
<path fill="none" opacity="1.000000" stroke="#000000" stroke-linecap="round" stroke-linejoin="round" stroke-width="3.000000"
	d="
M612.000000,863.000000 
	C613.833374,865.333313 615.539368,867.783508 617.540344,869.962952 
	C619.136780,871.701782 621.407776,872.277283 623.462402,870.942139 
	C625.727356,869.470215 627.059326,867.248962 625.468994,864.518066 
	C623.722107,861.518433 623.636292,856.883911 618.500000,857.000000 
"/>
<path fill="none" opacity="1.000000" stroke="#000000" stroke-linecap="round" stroke-linejoin="round" stroke-width="10.000000"
	d="
M164.500000,338.500000 
	C153.717804,338.136383 144.320160,341.464844 136.500000,349.000000 
"/>
<path fill="none" opacity="1.000000" stroke="#000000" stroke-linecap="round" stroke-linejoin="round" stroke-width="2.000000"
	d="
M623.000000,328.000000 
	C612.860291,334.788025 604.234131,342.918304 599.500000,354.500000 
"/>
<path fill="none" opacity="1.000000" stroke="#000000" stroke-linecap="round" stroke-linejoin="round" stroke-width="5.000000"
	d="
M485.000000,297.000000 
	C492.244598,300.211670 497.519836,305.535034 502.131165,311.905060 
	C504.250549,314.832764 504.259552,317.913483 505.099548,321.414490 
	C497.754089,325.413849 503.320526,330.527374 504.722412,334.929169 
	C505.789795,338.280701 506.663818,341.540680 507.004913,344.999512 
	C507.165833,346.631409 506.251129,346.002258 505.500000,345.750000 
"/>
<path fill="none" opacity="1.000000" stroke="#000000" stroke-linecap="round" stroke-linejoin="round" stroke-width="5.000000"
	d="
M445.000000,790.000000 
	C444.244873,800.528870 442.550995,810.737549 438.176392,820.578430 
	C435.399292,826.825562 434.216919,833.805237 432.598358,840.523682 
	C432.275024,841.865723 431.996979,843.207581 431.500000,844.500000 
"/>
<path fill="none" opacity="1.000000" stroke="#000000" stroke-linecap="round" stroke-linejoin="round" stroke-width="4.000000"
	d="
M399.500000,339.500000 
	C398.753662,337.021240 397.095093,334.897644 397.412994,331.990479 
	C397.707764,329.295044 398.298737,325.972076 394.972931,324.563934 
	C391.257629,322.990845 387.324249,321.845886 383.509827,324.514069 
	C382.939240,324.913147 382.500000,325.500000 382.000000,326.000000 
"/>
<path fill="none" opacity="1.000000" stroke="#000000" stroke-linecap="round" stroke-linejoin="round" stroke-width="12.000000"
	d="
M202.000000,350.000000 
	C208.858765,357.350647 211.595901,366.048767 210.500000,376.000000 
"/>
<path fill="none" opacity="1.000000" stroke="#000000" stroke-linecap="round" stroke-linejoin="round" stroke-width="9.000000"
	d="
M354.000000,181.500000 
	C354.361176,185.509277 352.630371,188.910339 350.448334,191.963058 
	C346.635834,197.296860 346.750885,203.184479 348.147827,208.964279 
	C349.022858,212.584686 349.311798,216.024323 348.381256,219.467911 
	C348.046997,220.704880 347.747833,222.036743 348.087738,222.967987 
	C349.756775,227.540771 349.014313,231.844406 346.932007,235.965637 
	C346.296143,237.224136 346.766174,238.347549 346.500000,239.500000 
"/>
<path fill="none" opacity="1.000000" stroke="#000000" stroke-linecap="round" stroke-linejoin="round" stroke-width="5.000000"
	d="
M312.000000,339.000000 
	C315.261749,344.361359 313.861938,350.298981 313.908203,356.000732 
	C313.937561,359.625061 314.506805,362.804871 317.000000,365.500000 
"/>
<path fill="none" opacity="1.000000" stroke="#000000" stroke-linecap="round" stroke-linejoin="round" stroke-width="4.000000"
	d="
M375.500000,816.500000 
	C373.906403,816.587891 372.462311,816.249756 370.981110,815.539429 
	C366.267303,813.278564 361.509399,813.091431 356.453949,814.869080 
	C354.382538,815.597412 351.896881,816.223206 349.500000,815.500000 
"/>
<path fill="none" opacity="1.000000" stroke="#000000" stroke-linecap="round" stroke-linejoin="round" stroke-width="3.000000"
	d="
M420.500000,1004.500000 
	C420.500000,1003.666687 420.789612,1002.683411 420.449371,1002.026184 
	C419.044006,999.311462 421.731445,994.561157 418.912933,993.840576 
	C414.753387,992.777100 409.928314,991.897705 405.500000,994.000000 
"/>
<path fill="none" opacity="1.000000" stroke="#000000" stroke-linecap="round" stroke-linejoin="round" stroke-width="8.000000"
	d="
M132.500000,358.000000 
	C132.500000,358.500000 132.684830,359.102448 132.472824,359.484924 
	C127.889305,367.753784 127.762436,376.517456 129.500000,385.500000 
"/>
<path fill="none" opacity="1.000000" stroke="#000000" stroke-linecap="round" stroke-linejoin="round" stroke-width="6.000000"
	d="
M522.500000,411.500000 
	C520.666687,411.833344 518.627197,411.762115 517.036865,412.572388 
	C511.213379,415.539612 510.478638,418.380524 513.496521,424.501709 
	C514.518372,426.574249 515.500000,428.666656 516.500000,430.750000 
"/>
<path fill="none" opacity="1.000000" stroke="#000000" stroke-linecap="round" stroke-linejoin="round" stroke-width="12.000000"
	d="
M189.500000,413.000000 
	C181.685028,415.609619 173.821838,417.756378 165.184677,415.466553 
	C165.046692,414.207397 164.898346,412.853699 164.750000,411.500000 
"/>
<path fill="none" opacity="1.000000" stroke="#000000" stroke-linecap="round" stroke-linejoin="round" stroke-width="6.000000"
	d="
M407.000000,604.500000 
	C408.833344,611.833313 410.666412,619.166748 412.500244,626.499939 
	C412.976898,628.406006 411.720306,629.465820 410.492401,630.490906 
	C408.737091,631.956238 406.947662,633.395325 404.500000,633.500000 
"/>
<path fill="none" opacity="1.000000" stroke="#000000" stroke-linecap="round" stroke-linejoin="round" stroke-width="5.000000"
	d="
M352.500000,149.500000 
	C352.754303,155.166672 353.919586,160.691666 352.733673,166.547318 
	C351.871338,170.805176 353.166687,175.500000 353.500031,180.000000 
"/>
<path fill="none" opacity="1.000000" stroke="#000000" stroke-linecap="round" stroke-linejoin="round" stroke-width="5.000000"
	d="
M519.000000,429.250000 
	C516.850525,430.109161 516.248657,431.935852 515.389465,433.952942 
	C513.310608,438.833344 510.255951,443.216034 506.471252,446.971008 
	C503.918976,449.503143 501.104126,450.655457 497.961090,447.539246 
	C496.872070,446.459473 495.366943,445.772736 493.993683,445.011383 
	C489.915039,442.750275 486.505493,443.551514 484.028198,447.517609 
	C482.432953,450.071533 481.635437,453.145844 479.000000,455.000000 
"/>
<path fill="none" opacity="1.000000" stroke="#000000" stroke-linecap="round" stroke-linejoin="round" stroke-width="4.000000"
	d="
M193.000000,342.000000 
	C189.768082,340.963837 187.254089,338.613525 184.132385,337.206329 
	C179.602127,335.164124 175.178741,334.695679 170.500000,334.500000 
"/>
<path fill="none" opacity="1.000000" stroke="#000000" stroke-linecap="round" stroke-linejoin="round" stroke-width="11.000000"
	d="
M134.250000,395.000000 
	C137.088135,404.368011 144.424789,409.298279 152.500000,413.500000 
"/>
<path fill="none" opacity="1.000000" stroke="#000000" stroke-linecap="round" stroke-linejoin="round" stroke-width="8.000000"
	d="
M212.500000,384.500000 
	C210.449722,392.336487 207.363052,399.511108 200.538635,404.552307 
	C198.898651,405.763763 197.433273,406.399780 195.500000,405.750000 
"/>
<path fill="none" opacity="1.000000" stroke="#000000" stroke-linecap="round" stroke-linejoin="round" stroke-width="4.000000"
	d="
M487.000000,340.500000 
	C491.871277,346.679626 490.955292,354.512787 493.000000,361.500000 
"/>
<path fill="none" opacity="1.000000" stroke="#000000" stroke-linecap="round" stroke-linejoin="round" stroke-width="3.000000"
	d="
M599.500000,871.500000 
	C598.544067,874.997009 598.624939,878.354797 602.030396,880.450623 
	C605.599365,882.647095 608.985779,881.767761 612.018738,879.020691 
	C612.725342,878.380737 613.666687,878.000000 614.500000,877.500000 
"/>
<path fill="none" opacity="1.000000" stroke="#000000" stroke-linecap="round" stroke-linejoin="round" stroke-width="3.000000"
	d="
M657.000000,328.000000 
	C654.427002,327.071686 651.741211,326.213928 649.551697,328.548492 
	C648.419495,329.755676 647.229797,329.376038 646.000305,329.503204 
	C640.952087,330.025238 639.413452,332.492340 641.000000,337.500000 
"/>
<path fill="none" opacity="1.000000" stroke="#000000" stroke-linecap="round" stroke-linejoin="round" stroke-width="3.000000"
	d="
M115.499992,340.500000 
	C114.037193,339.281006 112.574394,338.061981 111.143890,336.869873 
	C104.490517,342.887024 103.877876,344.044250 102.040909,353.783112 
	C103.078323,354.560333 104.039162,355.280182 105.000000,356.000000 
"/>
<path fill="none" opacity="1.000000" stroke="#000000" stroke-linecap="round" stroke-linejoin="round" stroke-width="4.000000"
	d="
M291.500000,723.000000 
	C284.800690,726.824036 278.010162,729.690002 270.500000,725.000000 
"/>
<path fill="none" opacity="1.000000" stroke="#000000" stroke-linecap="round" stroke-linejoin="round" stroke-width="4.000000"
	d="
M433.000000,719.500000 
	C425.869110,720.224243 419.388947,723.373962 412.500000,725.000000 
"/>
<path fill="none" opacity="1.000000" stroke="#000000" stroke-linecap="round" stroke-linejoin="round" stroke-width="4.000000"
	d="
M448.000000,756.500000 
	C451.712799,759.953735 451.625702,764.462769 451.511230,769.000305 
	C451.448212,771.498718 451.500000,774.000000 451.500000,776.500000 
"/>
<path fill="none" opacity="1.000000" stroke="#000000" stroke-linecap="round" stroke-linejoin="round" stroke-width="3.000000"
	d="
M337.000000,173.500000 
	C337.278534,180.163864 336.419495,186.856186 337.500000,193.500000 
"/>
<path fill="none" opacity="1.000000" stroke="#000000" stroke-linecap="round" stroke-linejoin="round" stroke-width="8.000000"
	d="
M520.500000,391.500000 
	C521.666687,393.666656 523.149475,395.726196 523.928223,398.024323 
	C525.196716,401.767548 526.812500,405.654510 524.008911,409.506470 
	C523.009521,410.879578 522.849915,412.204163 523.387268,414.033112 
	C524.308533,417.168976 523.746216,420.429413 522.500000,423.500000 
"/>
<path fill="none" opacity="1.000000" stroke="#000000" stroke-linecap="round" stroke-linejoin="round" stroke-width="3.000000"
	d="
M408.500000,218.500000 
	C401.745911,219.915253 395.132629,218.514206 388.500000,217.500000 
"/>
<path fill="none" opacity="1.000000" stroke="#000000" stroke-linecap="round" stroke-linejoin="round" stroke-width="4.000000"
	d="
M459.500000,990.500000 
	C457.606659,994.003357 461.958435,994.281677 462.491882,994.263367 
	C465.409912,994.163269 465.987732,996.612732 467.577179,997.554810 
	C466.844177,1001.788452 463.319275,1002.221191 461.054932,1001.740967 
	C458.525055,1001.204590 459.852051,1003.247192 459.000000,1003.500000 
"/>
<path fill="none" opacity="1.000000" stroke="#000000" stroke-linecap="round" stroke-linejoin="round" stroke-width="6.000000"
	d="
M461.000000,264.000000 
	C452.299347,261.260590 447.307068,264.629547 447.596344,273.496857 
	C447.728333,277.543365 447.034241,281.492523 449.663147,285.709961 
	C451.853241,289.223358 449.122986,294.104645 446.996490,297.998077 
	C446.352509,299.177124 445.666687,300.333344 445.000000,301.500000 
"/>
<path fill="none" opacity="1.000000" stroke="#000000" stroke-linecap="round" stroke-linejoin="round" stroke-width="3.000000"
	d="
M443.000000,218.000000 
	C436.528107,219.262543 430.025452,219.325867 423.500000,218.500000 
"/>
<path fill="none" opacity="1.000000" stroke="#000000" stroke-linecap="round" stroke-linejoin="round" stroke-width="9.000000"
	d="
M318.500000,856.500000 
	C315.587708,850.566162 319.781799,845.493774 320.497131,839.999634 
	C320.614380,839.099304 321.230469,838.851379 321.978485,838.458984 
	C327.088928,835.777832 340.406982,837.686340 344.455109,842.041748 
	C346.858734,844.627808 349.348145,846.246948 352.944580,847.207458 
	C358.188232,848.607910 361.843964,853.234009 366.500000,856.000000 
"/>
<path fill="none" opacity="1.000000" stroke="#000000" stroke-linecap="round" stroke-linejoin="round" stroke-width="7.000000"
	d="
M407.500000,452.000000 
	C406.055084,441.790588 404.171600,440.011078 394.000183,440.048309 
	C389.481720,440.064850 384.930878,441.533234 380.500000,439.500000 
"/>
<path fill="none" opacity="1.000000" stroke="#000000" stroke-linecap="round" stroke-linejoin="round" stroke-width="3.000000"
	d="
M360.500000,989.000000 
	C362.472382,989.147949 363.274323,990.859436 364.497803,992.002380 
	C367.479919,994.788452 368.824738,999.016602 372.688629,1001.113098 
	C373.370819,1001.483215 373.250000,1003.333313 373.500000,1004.500000 
"/>
<path fill="none" opacity="1.000000" stroke="#000000" stroke-linecap="round" stroke-linejoin="round" stroke-width="3.000000"
	d="
M389.500000,983.500000 
	C395.833344,983.833313 402.166656,984.166626 408.500000,984.500000 
"/>
<path fill="none" opacity="1.000000" stroke="#000000" stroke-linecap="round" stroke-linejoin="round" stroke-width="3.000000"
	d="
M431.500000,983.500000 
	C425.166656,983.833313 418.833344,984.166687 412.500000,984.500000 
"/>
<path fill="none" opacity="1.000000" stroke="#000000" stroke-linecap="round" stroke-linejoin="round" stroke-width="3.000000"
	d="
M433.500000,456.000000 
	C437.885101,460.137573 443.482910,462.387543 448.614197,465.298737 
	C449.761047,465.949402 449.846924,467.812927 451.500000,467.500000 
"/>
<path fill="none" opacity="1.000000" stroke="#000000" stroke-linecap="round" stroke-linejoin="round" stroke-width="3.000000"
	d="
M640.500000,388.500000 
	C643.185242,390.111084 644.595276,393.523773 643.281494,395.342133 
	C640.189270,399.622101 642.111755,402.634888 644.250000,406.000000 
"/>
<path fill="none" opacity="1.000000" stroke="#000000" stroke-linecap="round" stroke-linejoin="round" stroke-width="4.000000"
	d="
M492.000000,659.500000 
	C486.603760,657.738708 481.612793,654.305542 475.500000,655.500000 
"/>
<path fill="none" opacity="1.000000" stroke="#000000" stroke-linecap="round" stroke-linejoin="round" stroke-width="3.000000"
	d="
M677.000000,343.000000 
	C675.250549,339.231598 671.579407,341.297913 669.090515,340.278961 
	C664.558960,338.423798 663.690796,340.863495 662.389160,343.953308 
	C662.178711,344.452637 660.500000,344.333344 659.500000,344.500000 
"/>
<path fill="none" opacity="1.000000" stroke="#000000" stroke-linecap="round" stroke-linejoin="round" stroke-width="3.000000"
	d="
M348.500000,419.500000 
	C350.833344,421.000000 353.212830,422.433594 355.489532,424.015076 
	C359.194824,426.588837 358.221436,429.771698 356.455444,432.895966 
	C357.980164,436.413177 360.624481,438.807739 363.500000,441.000000 
"/>
<path fill="none" opacity="1.000000" stroke="#000000" stroke-linecap="round" stroke-linejoin="round" stroke-width="8.000000"
	d="
M398.500000,843.500000 
	C392.904449,844.643921 386.876678,844.757202 383.000000,850.000000 
"/>
<path fill="none" opacity="1.000000" stroke="#000000" stroke-linecap="round" stroke-linejoin="round" stroke-width="18.000000"
	d="
M465.000000,213.750000 
	C460.273102,210.460892 455.612061,210.759964 450.995911,213.994156 
	C450.694000,214.205688 450.319794,214.310989 450.002167,214.503571 
	C447.543701,215.994095 443.520538,215.501328 443.051392,219.506027 
	C442.683929,222.642654 441.569214,225.817291 442.965332,229.015137 
	C443.209808,229.575073 443.000000,230.333328 443.000000,231.000000 
"/>
<path fill="none" opacity="1.000000" stroke="#000000" stroke-linecap="round" stroke-linejoin="round" stroke-width="7.000000"
	d="
M407.500000,303.500000 
	C412.770813,306.520935 418.097565,306.216614 424.044830,305.286804 
	C429.726166,304.398621 435.864502,305.281738 441.500000,307.500000 
"/>
<path fill="none" opacity="1.000000" stroke="#000000" stroke-linecap="round" stroke-linejoin="round" stroke-width="4.000000"
	d="
M278.500000,661.500000 
	C273.558258,658.455750 268.828339,654.846619 262.500000,655.500000 
"/>
<path fill="none" opacity="1.000000" stroke="#000000" stroke-linecap="round" stroke-linejoin="round" stroke-width="4.000000"
	d="
M355.500000,463.500000 
	C350.261047,469.473969 351.698547,472.193268 356.000000,479.500000 
"/>
<path fill="none" opacity="1.000000" stroke="#000000" stroke-linecap="round" stroke-linejoin="round" stroke-width="5.000000"
	d="
M438.500000,331.000000 
	C433.073730,331.491333 427.886108,329.436981 422.500000,329.500000 
"/>
<path fill="none" opacity="1.000000" stroke="#000000" stroke-linecap="round" stroke-linejoin="round" stroke-width="7.000000"
	d="
M347.500000,846.500000 
	C342.791351,850.961060 345.134888,856.373230 345.534363,861.497314 
	C345.639709,862.848389 346.166656,864.166687 346.500000,865.500000 
"/>
<path fill="none" opacity="1.000000" stroke="#000000" stroke-linecap="round" stroke-linejoin="round" stroke-width="6.000000"
	d="
M420.000000,236.500000 
	C421.399200,242.098694 419.757874,246.987946 416.500000,251.500000 
"/>
<path fill="none" opacity="1.000000" stroke="#000000" stroke-linecap="round" stroke-linejoin="round" stroke-width="6.000000"
	d="
M249.000000,628.000000 
	C247.833328,629.272644 246.992325,629.388245 245.434784,628.077515 
	C241.758453,624.983643 237.268356,624.050842 232.500000,624.500000 
"/>
<path fill="none" opacity="1.000000" stroke="#000000" stroke-linecap="round" stroke-linejoin="round" stroke-width="4.000000"
	d="
M633.500000,341.500000 
	C635.196167,343.838257 632.692200,345.476471 632.383972,347.490845 
	C629.503052,347.619232 626.149414,346.787262 624.500000,350.500000 
"/>
<path fill="none" opacity="1.000000" stroke="#000000" stroke-linecap="round" stroke-linejoin="round" stroke-width="5.000000"
	d="
M468.000000,217.500000 
	C471.276001,221.472137 474.418518,225.476410 471.250000,231.000000 
"/>
<path fill="none" opacity="1.000000" stroke="#000000" stroke-linecap="round" stroke-linejoin="round" stroke-width="4.000000"
	d="
M490.500000,724.500000 
	C484.986481,725.191650 480.259430,723.349243 476.000000,720.000000 
"/>
<path fill="none" opacity="1.000000" stroke="#000000" stroke-linecap="round" stroke-linejoin="round" stroke-width="4.000000"
	d="
M395.500000,1006.000000 
	C391.322113,1004.683716 391.543335,1000.505432 390.036407,997.481873 
	C389.006836,995.416016 389.027191,992.472778 385.500000,993.000000 
"/>
<path fill="none" opacity="1.000000" stroke="#000000" stroke-linecap="round" stroke-linejoin="round" stroke-width="6.000000"
	d="
M412.500000,237.500000 
	C412.086670,242.665710 413.188171,247.398621 416.500000,251.500000 
"/>
<path fill="none" opacity="1.000000" stroke="#000000" stroke-linecap="round" stroke-linejoin="round" stroke-width="3.000000"
	d="
M306.000000,974.000000 
	C305.166656,975.833313 303.821777,977.613464 303.624237,979.512939 
	C303.352295,982.127319 302.545959,985.432678 306.500000,986.500000 
"/>
<path fill="none" opacity="1.000000" stroke="#000000" stroke-linecap="round" stroke-linejoin="round" stroke-width="3.000000"
	d="
M267.000000,913.000000 
	C266.500000,913.666687 265.906342,914.963623 265.514069,914.905273 
	C259.745239,914.048035 255.730667,918.768921 250.500000,919.500000 
"/>
<path fill="none" opacity="1.000000" stroke="#000000" stroke-linecap="round" stroke-linejoin="round" stroke-width="3.000000"
	d="
M591.000000,877.000000 
	C589.231140,877.980286 587.746338,879.145935 588.508301,881.497314 
	C589.359497,884.123657 591.599060,883.445618 593.500183,883.493713 
	C596.773010,883.576416 599.544922,884.121765 598.500000,888.500000 
"/>
<path fill="none" opacity="1.000000" stroke="#000000" stroke-linecap="round" stroke-linejoin="round" stroke-width="4.000000"
	d="
M616.000000,660.500000 
	C611.557007,658.679321 607.838257,654.903320 602.500000,655.500000 
"/>
<path fill="none" opacity="1.000000" stroke="#000000" stroke-linecap="round" stroke-linejoin="round" stroke-width="4.000000"
	d="
M667.500000,648.000000 
	C671.822144,648.891418 675.877869,651.168396 680.500000,650.500000 
"/>
<path fill="none" opacity="1.000000" stroke="#000000" stroke-linecap="round" stroke-linejoin="round" stroke-width="4.000000"
	d="
M526.500000,658.000000 
	C522.602295,654.901550 517.995911,655.488098 513.500000,655.500000 
"/>
<path fill="none" opacity="1.000000" stroke="#000000" stroke-linecap="round" stroke-linejoin="round" stroke-width="5.000000"
	d="
M324.000000,817.000000 
	C321.548798,815.483887 319.149017,815.312561 317.546661,818.027527 
	C315.842621,820.914917 314.319611,823.960571 314.500000,827.500000 
"/>
<path fill="none" opacity="1.000000" stroke="#000000" stroke-linecap="round" stroke-linejoin="round" stroke-width="3.000000"
	d="
M621.500000,370.500000 
	C614.150940,372.433899 613.208496,375.065399 617.754395,380.996643 
	C618.329773,381.747345 618.682983,382.536774 618.500000,383.500000 
"/>
<path fill="none" opacity="1.000000" stroke="#000000" stroke-linecap="round" stroke-linejoin="round" stroke-width="6.000000"
	d="
M378.000000,228.000000 
	C375.362091,232.770142 371.168365,233.067429 366.500000,232.000000 
"/>
<path fill="none" opacity="1.000000" stroke="#000000" stroke-linecap="round" stroke-linejoin="round" stroke-width="4.000000"
	d="
M365.000000,862.500000 
	C362.598480,866.500854 360.899384,870.690857 361.500000,875.500000 
"/>
<path fill="none" opacity="1.000000" stroke="#000000" stroke-linecap="round" stroke-linejoin="round" stroke-width="2.000000"
	d="
M668.500000,773.500000 
	C665.877930,777.593445 664.394531,782.370056 661.000000,786.000000 
"/>
<path fill="none" opacity="1.000000" stroke="#000000" stroke-linecap="round" stroke-linejoin="round" stroke-width="3.000000"
	d="
M663.000000,344.500000 
	C665.335815,345.946808 668.571899,346.223206 669.138916,349.455994 
	C671.926819,349.766937 672.539856,347.010834 674.500000,346.500000 
"/>
<path fill="none" opacity="1.000000" stroke="#000000" stroke-linecap="round" stroke-linejoin="round" stroke-width="2.000000"
	d="
M636.500000,322.500000 
	C631.950256,322.935944 627.916504,324.805115 624.000000,327.000000 
"/>
<path fill="none" opacity="1.000000" stroke="#000000" stroke-linecap="round" stroke-linejoin="round" stroke-width="3.000000"
	d="
M550.500000,962.500000 
	C550.222717,960.658264 549.945374,958.816467 549.651611,956.865417 
	C546.689758,955.997620 544.387085,956.771545 542.500000,959.000000 
"/>
<path fill="none" opacity="1.000000" stroke="#000000" stroke-linecap="round" stroke-linejoin="round" stroke-width="4.000000"
	d="
M517.500000,984.000000 
	C516.166687,981.166687 514.720093,978.379272 513.544739,975.481812 
	C512.895691,973.881714 511.784210,973.931580 510.500000,974.000000 
"/>
<path fill="none" opacity="1.000000" stroke="#000000" stroke-linecap="round" stroke-linejoin="round" stroke-width="4.000000"
	d="
M321.500000,659.000000 
	C317.825134,656.718628 313.947815,655.131287 309.500000,655.500000 
"/>
<path fill="none" opacity="1.000000" stroke="#000000" stroke-linecap="round" stroke-linejoin="round" stroke-width="3.000000"
	d="
M322.500000,398.500000 
	C323.689789,400.281494 325.197662,401.856598 326.402802,403.568420 
	C329.561646,408.055634 333.274231,409.563751 337.968292,406.452179 
	C343.338226,402.892639 343.604187,409.299438 346.500000,410.500000 
"/>
<path fill="none" opacity="1.000000" stroke="#000000" stroke-linecap="round" stroke-linejoin="round" stroke-width="4.000000"
	d="
M587.500000,896.500000 
	C586.080383,891.070618 581.989014,886.297363 578.500000,886.000000 
"/>
<path fill="none" opacity="1.000000" stroke="#000000" stroke-linecap="round" stroke-linejoin="round" stroke-width="3.000000"
	d="
M344.500000,427.500000 
	C348.018585,430.103241 350.713654,434.284943 356.000000,433.500000 
"/>
<path fill="none" opacity="1.000000" stroke="#000000" stroke-linecap="round" stroke-linejoin="round" stroke-width="5.000000"
	d="
M195.500000,851.500000 
	C191.412872,852.510254 191.379684,855.328735 192.522156,858.492004 
	C194.025635,862.654785 193.138596,865.485962 188.500000,866.500000 
"/>
<path fill="none" opacity="1.000000" stroke="#000000" stroke-linecap="round" stroke-linejoin="round" stroke-width="4.000000"
	d="
M314.000000,722.000000 
	C317.472656,724.382629 321.550720,724.444458 325.500000,725.000000 
"/>
<path fill="none" opacity="1.000000" stroke="#000000" stroke-linecap="round" stroke-linejoin="round" stroke-width="6.000000"
	d="
M224.000000,720.000000 
	C227.529434,722.165161 231.293106,723.560791 235.500000,723.500000 
"/>
<path fill="none" opacity="1.000000" stroke="#000000" stroke-linecap="round" stroke-linejoin="round" stroke-width="3.000000"
	d="
M687.500000,361.500000 
	C683.553528,355.610962 681.524719,354.934662 675.500000,357.500000 
"/>
<path fill="none" opacity="1.000000" stroke="#000000" stroke-linecap="round" stroke-linejoin="round" stroke-width="3.000000"
	d="
M318.500000,977.500000 
	C316.245270,980.888367 316.917999,986.325928 311.500000,987.500000 
"/>
<path fill="none" opacity="1.000000" stroke="#000000" stroke-linecap="round" stroke-linejoin="round" stroke-width="6.000000"
	d="
M362.000000,566.000000 
	C366.115387,565.918762 370.236206,565.816833 373.500000,569.000000 
"/>
<path fill="none" opacity="1.000000" stroke="#000000" stroke-linecap="round" stroke-linejoin="round" stroke-width="5.000000"
	d="
M251.500000,930.000000 
	C249.397858,931.059021 247.316940,929.143005 245.533234,929.623413 
	C240.650269,930.938293 238.693832,935.198120 237.000000,939.500000 
"/>
<path fill="none" opacity="1.000000" stroke="#000000" stroke-linecap="round" stroke-linejoin="round" stroke-width="3.000000"
	d="
M547.000000,910.500000 
	C548.663208,914.699097 548.513000,919.107483 548.500000,923.500000 
"/>
<path fill="none" opacity="1.000000" stroke="#000000" stroke-linecap="round" stroke-linejoin="round" stroke-width="2.000000"
	d="
M138.500000,312.000000 
	C133.666656,315.166656 128.833328,318.333313 124.000000,321.500000 
"/>
<path fill="none" opacity="1.000000" stroke="#000000" stroke-linecap="round" stroke-linejoin="round" stroke-width="2.000000"
	d="
M199.499985,838.500000 
	C202.166641,842.166687 204.833313,845.833374 207.499985,849.500000 
"/>
<path fill="none" opacity="1.000000" stroke="#000000" stroke-linecap="round" stroke-linejoin="round" stroke-width="4.000000"
	d="
M502.000031,979.500000 
	C504.000031,982.000000 506.415558,984.286560 507.849091,987.077515 
	C508.753998,988.839172 509.744629,987.471741 510.500000,988.000000 
"/>
<path fill="none" opacity="1.000000" stroke="#000000" stroke-linecap="round" stroke-linejoin="round" stroke-width="3.000000"
	d="
M332.500000,409.000000 
	C332.069122,413.498840 335.559387,416.130463 337.500000,419.500000 
"/>
<path fill="none" opacity="1.000000" stroke="#000000" stroke-linecap="round" stroke-linejoin="round" stroke-width="2.000000"
	d="
M655.500000,406.500000 
	C656.343933,410.269348 655.638794,414.531616 659.000000,417.500000 
"/>
<path fill="none" opacity="1.000000" stroke="#000000" stroke-linecap="round" stroke-linejoin="round" stroke-width="5.000000"
	d="
M435.000000,301.000000 
	C433.171204,299.021851 432.725830,296.343689 432.149292,293.963837 
	C431.467377,291.149139 429.770264,289.960419 427.507935,290.115692 
	C424.489136,290.322876 423.827026,292.550171 423.889343,295.502350 
	C423.954224,298.576813 424.682007,301.498291 425.000000,304.500000 
"/>
<path fill="none" opacity="1.000000" stroke="#000000" stroke-linecap="round" stroke-linejoin="round" stroke-width="2.000000"
	d="
M620.500000,838.500000 
	C618.429749,842.927368 614.209778,845.595886 611.500000,849.500000 
"/>
<path fill="none" opacity="1.000000" stroke="#000000" stroke-linecap="round" stroke-linejoin="round" stroke-width="2.000000"
	d="
M491.500000,207.500000 
	C491.719086,211.607590 490.240417,215.174988 488.000000,218.500000 
"/>
<path fill="none" opacity="1.000000" stroke="#000000" stroke-linecap="round" stroke-linejoin="round" stroke-width="3.000000"
	d="
M100.000000,385.000000 
	C98.546196,386.570282 96.678635,387.809570 95.960114,390.228424 
	C97.030876,391.703705 98.017273,393.474091 100.500000,393.000000 
"/>
<path fill="none" opacity="1.000000" stroke="#000000" stroke-linecap="round" stroke-linejoin="round" stroke-width="5.000000"
	d="
M264.500000,916.000000 
	C265.224701,919.204102 264.493408,922.178650 262.984711,924.991821 
	C262.258453,926.346130 262.350342,927.473755 263.500000,928.500000 
"/>
<path fill="none" opacity="1.000000" stroke="#000000" stroke-linecap="round" stroke-linejoin="round" stroke-width="3.000000"
	d="
M569.500000,930.000000 
	C577.121460,928.812195 581.345459,932.631287 583.500000,939.500000 
"/>
<path fill="none" opacity="1.000000" stroke="#000000" stroke-linecap="round" stroke-linejoin="round" stroke-width="4.000000"
	d="
M354.500000,987.500000 
	C351.854370,986.750244 350.668976,989.349609 350.700684,990.494446 
	C350.782959,993.463562 348.975342,996.065735 349.500000,999.000000 
"/>
<path fill="none" opacity="1.000000" stroke="#000000" stroke-linecap="round" stroke-linejoin="round" stroke-width="2.000000"
	d="
M656.000000,329.000000 
	C655.833313,330.500000 655.091187,332.251953 655.615479,333.449432 
	C656.846863,336.261902 655.088623,337.501923 653.500000,339.000000 
"/>
<path fill="none" opacity="1.000000" stroke="#000000" stroke-linecap="round" stroke-linejoin="round" stroke-width="3.000000"
	d="
M218.500000,876.500000 
	C216.108383,875.354248 214.946136,877.215881 213.486908,878.484924 
	C211.877747,879.884399 210.166656,881.166687 208.500000,882.500000 
"/>
<path fill="none" opacity="1.000000" stroke="#000000" stroke-linecap="round" stroke-linejoin="round" stroke-width="4.000000"
	d="
M180.500000,726.000000 
	C184.007462,727.113037 186.798019,729.819214 190.500000,730.500000 
"/>
<path fill="none" opacity="1.000000" stroke="#000000" stroke-linecap="round" stroke-linejoin="round" stroke-width="5.000000"
	d="
M652.500000,339.500000 
	C649.279175,340.325104 646.998779,337.069366 643.464417,337.836060 
	C638.541809,338.903870 638.404968,338.465607 640.000000,343.500000 
"/>
<path fill="none" opacity="1.000000" stroke="#000000" stroke-linecap="round" stroke-linejoin="round" stroke-width="5.000000"
	d="
M441.000000,285.000000 
	C438.290344,287.834595 433.635712,287.826538 431.500000,291.500000 
"/>
<path fill="none" opacity="1.000000" stroke="#000000" stroke-linecap="round" stroke-linejoin="round" stroke-width="2.000000"
	d="
M433.500000,102.500000 
	C430.053711,102.398094 427.193573,99.365517 423.500000,100.500000 
"/>
<path fill="none" opacity="1.000000" stroke="#000000" stroke-linecap="round" stroke-linejoin="round" stroke-width="5.000000"
	d="
M228.500000,884.500000 
	C227.896912,888.365112 225.340118,891.253418 223.500000,894.500000 
"/>
<path fill="none" opacity="1.000000" stroke="#000000" stroke-linecap="round" stroke-linejoin="round" stroke-width="2.000000"
	d="
M373.500000,991.000061 
	C374.153656,991.205078 374.807312,991.410156 375.535065,991.638428 
	C375.039978,994.173889 374.519989,996.836975 373.999969,999.500000 
"/>
<path fill="none" opacity="1.000000" stroke="#000000" stroke-linecap="round" stroke-linejoin="round" stroke-width="5.000000"
	d="
M212.000000,867.500000 
	C213.168045,863.089661 208.922668,863.600586 206.786835,861.801819 
	C203.692078,865.366882 200.596039,868.933472 197.500000,872.500000 
"/>
<path fill="none" opacity="1.000000" stroke="#000000" stroke-linecap="round" stroke-linejoin="round" stroke-width="5.000000"
	d="
M375.500000,524.500000 
	C376.034760,529.892883 374.667114,531.716370 368.000000,534.500000 
"/>
<path fill="none" opacity="1.000000" stroke="#000000" stroke-linecap="round" stroke-linejoin="round" stroke-width="4.000000"
	d="
M240.500000,889.500000 
	C240.009201,894.123108 235.566833,895.979919 233.498810,899.499329 
	C232.951843,900.430115 230.965897,900.877502 232.500000,902.500000 
"/>
<path fill="none" opacity="1.000000" stroke="#000000" stroke-linecap="round" stroke-linejoin="round" stroke-width="5.000000"
	d="
M252.500000,899.500000 
	C253.748032,902.207336 250.749100,902.797363 249.900650,904.448975 
	C248.433426,907.305054 244.921097,908.862427 244.500000,912.500000 
"/>
<path fill="none" opacity="1.000000" stroke="#000000" stroke-linecap="round" stroke-linejoin="round" stroke-width="5.000000"
	d="
M391.500000,288.000000 
	C393.851562,288.065796 396.285553,287.436157 398.076752,289.945221 
	C398.877380,291.066742 400.591736,290.744080 402.002594,290.516022 
	C405.707642,289.917023 407.741577,291.466492 407.995056,295.000366 
	C408.030762,295.497803 408.003876,296.000031 407.999390,296.500000 
	C407.973267,299.418518 408.597229,303.110260 405.426086,304.303589 
	C402.702209,305.328583 399.948059,303.349396 398.000000,301.000000 
"/>
<path fill="none" opacity="1.000000" stroke="#000000" stroke-linecap="round" stroke-linejoin="round" stroke-width="3.000000"
	d="
M684.000000,380.000000 
	C687.309570,376.074249 686.842712,373.175873 682.486023,371.537231 
	C680.569092,370.816254 678.500000,370.500000 676.500000,370.000000 
"/>
<path fill="none" opacity="1.000000" stroke="#000000" stroke-linecap="round" stroke-linejoin="round" stroke-width="3.000000"
	d="
M231.500000,882.500000 
	C227.333771,884.202271 222.899384,884.510071 218.500000,885.000000 
"/>
<path fill="none" opacity="1.000000" stroke="#000000" stroke-linecap="round" stroke-linejoin="round" stroke-width="3.000000"
	d="
M540.000000,973.500000 
	C541.292114,977.974487 535.679016,974.680603 535.500000,977.500000 
	C534.254517,977.183899 533.040894,978.002930 531.827881,976.110352 
	C530.125854,973.454895 530.639526,969.433655 526.901489,968.706604 
	C527.183289,966.516602 528.017029,965.683716 529.500000,965.500000 
"/>
<path fill="none" opacity="1.000000" stroke="#000000" stroke-linecap="round" stroke-linejoin="round" stroke-width="2.000000"
	d="
M254.500000,882.500000 
	C257.581635,887.200684 263.565552,887.185120 267.500000,890.500000 
"/>
<path fill="none" opacity="1.000000" stroke="#000000" stroke-linecap="round" stroke-linejoin="round" stroke-width="3.000000"
	d="
M292.500000,966.500000 
	C293.205750,970.228149 289.883148,972.384644 288.968872,975.490845 
	C288.673431,976.494690 287.261505,977.265808 288.500000,978.500000 
"/>
<path fill="none" opacity="1.000000" stroke="#000000" stroke-linecap="round" stroke-linejoin="round" stroke-width="3.000000"
	d="
M541.500000,959.500000 
	C543.333313,963.000000 545.142822,966.512817 547.011597,969.993774 
	C547.774902,971.415466 548.666687,969.911011 549.500000,970.000000 
"/>
<path fill="none" opacity="1.000000" stroke="#000000" stroke-linecap="round" stroke-linejoin="round" stroke-width="4.000000"
	d="
M360.500000,724.500000 
	C357.172058,723.771057 353.674438,723.502686 351.000000,721.000000 
"/>
<path fill="none" opacity="1.000000" stroke="#000000" stroke-linecap="round" stroke-linejoin="round" stroke-width="3.000000"
	d="
M282.500000,961.000000 
	C279.017822,959.573120 278.834686,963.019531 277.569824,964.557434 
	C276.120483,966.319641 275.203156,968.519470 273.945496,970.720337 
	C274.767426,971.132080 275.633728,971.566040 276.500000,972.000000 
"/>
<path fill="none" opacity="1.000000" stroke="#000000" stroke-linecap="round" stroke-linejoin="round" stroke-width="2.000000"
	d="
M375.499969,583.500000 
	C376.999969,586.500000 378.499969,589.500000 379.999969,592.500000 
"/>
<path fill="none" opacity="1.000000" stroke="#000000" stroke-linecap="round" stroke-linejoin="round" stroke-width="3.000000"
	d="
M100.000000,355.500000 
	C100.348587,359.385315 97.868752,362.462494 96.811653,366.120361 
	C98.603050,367.114624 100.301529,368.057312 102.000008,369.000000 
"/>
<path fill="none" opacity="1.000000" stroke="#000000" stroke-linecap="round" stroke-linejoin="round" stroke-width="4.000000"
	d="
M637.500000,844.500000 
	C637.156616,846.840881 639.018372,847.637817 640.523560,848.456726 
	C642.804504,849.697571 644.713562,851.231750 646.000000,853.500000 
"/>
<path fill="none" opacity="1.000000" stroke="#000000" stroke-linecap="round" stroke-linejoin="round" stroke-width="5.000000"
	d="
M342.500000,984.000000 
	C340.457062,984.577332 338.936096,985.115112 339.893311,988.034973 
	C340.873993,991.026367 338.934906,994.515625 341.000000,997.500000 
"/>
<path fill="none" opacity="1.000000" stroke="#000000" stroke-linecap="round" stroke-linejoin="round" stroke-width="4.000000"
	d="
M265.500000,947.500000 
	C265.748291,950.693604 269.498413,951.713623 270.043793,955.027222 
	C268.106323,958.063965 266.053162,961.281982 264.000000,964.500000 
"/>
<path fill="none" opacity="1.000000" stroke="#000000" stroke-linecap="round" stroke-linejoin="round" stroke-width="2.000000"
	d="
M522.500000,926.500000 
	C525.000000,929.500000 527.500000,932.500000 530.000000,935.500000 
"/>
<path fill="none" opacity="1.000000" stroke="#000000" stroke-linecap="round" stroke-linejoin="round" stroke-width="2.000000"
	d="
M453.500000,468.500000 
	C456.320709,469.071533 458.999023,470.450012 462.000000,470.000000 
"/>
<path fill="none" opacity="1.000000" stroke="#000000" stroke-linecap="round" stroke-linejoin="round" stroke-width="4.000000"
	d="
M535.500000,917.500000 
	C537.399231,916.670593 538.877258,916.834961 540.574524,918.420227 
	C542.521301,920.238831 544.914551,921.700806 547.750000,922.000000 
"/>
<path fill="none" opacity="1.000000" stroke="#000000" stroke-linecap="round" stroke-linejoin="round" stroke-width="2.000000"
	d="
M225.500000,327.000000 
	C227.833344,329.666656 230.166672,332.333344 232.500000,335.000000 
"/>
<path fill="none" opacity="1.000000" stroke="#000000" stroke-linecap="round" stroke-linejoin="round" stroke-width="3.000000"
	d="
M632.500000,336.500000 
	C629.316711,337.811157 626.879272,340.116852 624.500000,342.500000 
"/>
<path fill="none" opacity="1.000000" stroke="#000000" stroke-linecap="round" stroke-linejoin="round" stroke-width="2.000000"
	d="
M530.500000,936.500000 
	C532.183472,938.602417 529.751892,939.111389 528.938843,939.940002 
	C526.959778,941.957336 524.666687,943.666687 522.500000,945.500000 
"/>
<path fill="none" opacity="1.000000" stroke="#000000" stroke-linecap="round" stroke-linejoin="round" stroke-width="4.000000"
	d="
M327.500000,980.500000 
	C328.370728,984.334900 328.071106,988.595337 331.500000,991.500000 
"/>
<path fill="none" opacity="1.000000" stroke="#000000" stroke-linecap="round" stroke-linejoin="round" stroke-width="3.000000"
	d="
M423.000000,763.500000 
	C422.250702,760.302246 420.619965,758.066101 417.000000,758.000000 
"/>
<path fill="none" opacity="1.000000" stroke="#000000" stroke-linecap="round" stroke-linejoin="round" stroke-width="3.000000"
	d="
M150.500000,428.500000 
	C147.832703,427.501709 145.999283,424.279663 142.500000,425.500000 
"/>
<path fill="none" opacity="1.000000" stroke="#000000" stroke-linecap="round" stroke-linejoin="round" stroke-width="4.000000"
	d="
M490.500000,981.500000 
	C492.223358,984.670166 494.177887,987.616943 497.750000,989.000000 
"/>
<path fill="none" opacity="1.000000" stroke="#000000" stroke-linecap="round" stroke-linejoin="round" stroke-width="2.000000"
	d="
M629.500000,850.500000 
	C630.527344,854.210999 630.092957,858.387085 633.000000,861.500000 
"/>
<path fill="none" opacity="1.000000" stroke="#000000" stroke-linecap="round" stroke-linejoin="round" stroke-width="2.000000"
	d="
M313.500000,956.500000 
	C315.327209,958.007507 317.863251,958.487732 319.079010,960.961182 
	C319.862579,962.555176 321.738403,962.784851 323.500000,962.500000 
"/>
<path fill="none" opacity="1.000000" stroke="#000000" stroke-linecap="round" stroke-linejoin="round" stroke-width="6.000000"
	d="
M453.000000,227.000000 
	C455.247131,231.225189 458.766602,233.021317 463.500000,232.500000 
"/>
<path fill="none" opacity="1.000000" stroke="#000000" stroke-linecap="round" stroke-linejoin="round" stroke-width="3.000000"
	d="
M685.500000,742.000000 
	C688.166687,742.333374 690.833313,742.666687 693.500000,743.000000 
"/>
<path fill="none" opacity="1.000000" stroke="#000000" stroke-linecap="round" stroke-linejoin="round" stroke-width="5.000000"
	d="
M220.500000,872.500000 
	C219.957581,876.560608 217.992661,880.319397 217.986603,884.500000 
	C217.984253,886.124329 216.696548,886.802673 215.500000,887.500000 
"/>
<path fill="none" opacity="1.000000" stroke="#000000" stroke-linecap="round" stroke-linejoin="round" stroke-width="2.000000"
	d="
M542.500000,898.500000 
	C539.633667,899.878174 536.979431,901.503784 535.500000,904.500000 
"/>
<path fill="none" opacity="1.000000" stroke="#000000" stroke-linecap="round" stroke-linejoin="round" stroke-width="3.000000"
	d="
M189.000000,305.500000 
	C190.086212,308.571259 195.331421,306.235840 195.500000,310.500000 
"/>
<path fill="none" opacity="1.000000" stroke="#000000" stroke-linecap="round" stroke-linejoin="round" stroke-width="3.000000"
	d="
M155.500000,779.500000 
	C156.895508,782.027039 157.381775,785.203491 160.500000,786.500000 
"/>
<path fill="none" opacity="1.000000" stroke="#000000" stroke-linecap="round" stroke-linejoin="round" stroke-width="3.000000"
	d="
M473.500000,204.000000 
	C470.612976,203.785187 467.843262,204.039719 465.500000,206.000000 
"/>
<path fill="none" opacity="1.000000" stroke="#000000" stroke-linecap="round" stroke-linejoin="round" stroke-width="4.000000"
	d="
M660.500000,420.000000 
	C662.863464,421.795013 663.374329,425.947784 667.500000,425.500000 
"/>
<path fill="none" opacity="1.000000" stroke="#000000" stroke-linecap="round" stroke-linejoin="round" stroke-width="4.000000"
	d="
M476.000000,997.500000 
	C474.233063,994.941284 474.383789,991.814392 473.592468,988.974243 
	C473.050812,987.030334 472.026184,986.877380 470.500000,987.000000 
"/>
<path fill="none" opacity="1.000000" stroke="#000000" stroke-linecap="round" stroke-linejoin="round" stroke-width="2.000000"
	d="
M536.000000,905.500000 
	C535.372803,904.302612 534.393921,904.403320 533.514465,905.020569 
	C531.469177,906.456055 529.500000,907.999939 527.500000,909.499939 
"/>
<path fill="none" opacity="1.000000" stroke="#000000" stroke-linecap="round" stroke-linejoin="round" stroke-width="4.000000"
	d="
M677.000000,357.500000 
	C678.801025,359.087036 678.156189,362.675232 681.500000,363.000000 
"/>
<path fill="none" opacity="1.000000" stroke="#000000" stroke-linecap="round" stroke-linejoin="round" stroke-width="3.000000"
	d="
M206.500000,313.000000 
	C205.428360,311.802155 203.800919,312.790314 202.391068,311.632660 
	C200.020462,309.686127 197.021606,309.590851 194.502823,312.002960 
	C193.604004,312.863708 192.635574,313.146759 191.500000,312.500000 
"/>
<path fill="none" opacity="1.000000" stroke="#000000" stroke-linecap="round" stroke-linejoin="round" stroke-width="3.000000"
	d="
M617.500000,355.500000 
	C612.350952,360.865479 614.589600,365.738464 618.500000,370.500000 
"/>
<path fill="none" opacity="1.000000" stroke="#000000" stroke-linecap="round" stroke-linejoin="round" stroke-width="3.000000"
	d="
M174.500000,787.000000 
	C178.042938,785.480164 179.759140,786.797180 180.014725,790.498962 
	C180.084244,791.505676 180.333344,792.500000 180.500000,793.500000 
"/>
<path fill="none" opacity="1.000000" stroke="#000000" stroke-linecap="round" stroke-linejoin="round" stroke-width="3.000000"
	d="
M241.000000,350.500000 
	C242.084625,352.710846 241.357437,355.897278 244.500000,357.000000 
"/>
<path fill="none" opacity="1.000000" stroke="#000000" stroke-linecap="round" stroke-linejoin="round" stroke-width="3.000000"
	d="
M650.000000,418.500000 
	C648.189453,420.685699 646.378906,422.871368 644.428223,425.226166 
	C644.902283,426.213531 645.451111,427.356781 646.000000,428.500000 
"/>
<path fill="none" opacity="1.000000" stroke="#000000" stroke-linecap="round" stroke-linejoin="round" stroke-width="2.000000"
	d="
M240.500000,923.500000 
	C242.965027,924.776245 245.190125,926.232422 245.000000,929.500000 
"/>
<path fill="none" opacity="1.000000" stroke="#000000" stroke-linecap="round" stroke-linejoin="round" stroke-width="2.000000"
	d="
M483.500000,997.000000 
	C480.227386,997.970215 476.586853,997.100891 473.500000,999.000000 
"/>
<path fill="none" opacity="1.000000" stroke="#000000" stroke-linecap="round" stroke-linejoin="round" stroke-width="4.000000"
	d="
M423.000000,293.000000 
	C421.000000,292.150970 419.241272,290.264282 416.896973,292.908661 
	C415.745697,294.207275 414.047913,292.117767 412.500000,292.000000 
"/>
<path fill="none" opacity="1.000000" stroke="#000000" stroke-linecap="round" stroke-linejoin="round" stroke-width="2.000000"
	d="
M293.500000,931.500000 
	C292.439514,933.681885 290.040405,934.971375 289.156433,938.200989 
	C291.480560,940.194519 293.990295,942.347229 296.500031,944.500000 
"/>
<path fill="none" opacity="1.000000" stroke="#000000" stroke-linecap="round" stroke-linejoin="round" stroke-width="3.000000"
	d="
M436.500000,697.999939 
	C434.166656,697.833313 431.833344,697.666626 429.500000,697.499939 
"/>
<path fill="none" opacity="1.000000" stroke="#000000" stroke-linecap="round" stroke-linejoin="round" stroke-width="2.000000"
	d="
M325.500000,984.000000 
	C323.432617,985.968567 322.178894,988.460266 321.000000,991.000000 
"/>
<path fill="none" opacity="1.000000" stroke="#000000" stroke-linecap="round" stroke-linejoin="round" stroke-width="5.000000"
	d="
M379.000000,262.500000 
	C383.943604,265.643707 382.058411,270.210052 381.500000,274.500000 
"/>
<path fill="none" opacity="1.000000" stroke="#000000" stroke-linecap="round" stroke-linejoin="round" stroke-width="3.000000"
	d="
M486.000000,252.500000 
	C485.260803,254.787033 484.477448,257.053680 483.000000,259.000000 
"/>
<path fill="none" opacity="1.000000" stroke="#000000" stroke-linecap="round" stroke-linejoin="round" stroke-width="3.000000"
	d="
M547.000000,964.000000 
	C550.642090,961.182434 553.983887,964.671692 557.500000,964.500000 
"/>
<path fill="none" opacity="1.000000" stroke="#000000" stroke-linecap="round" stroke-linejoin="round" stroke-width="3.000000"
	d="
M403.500000,211.000000 
	C401.282776,211.004715 399.023773,210.737930 397.000000,212.000000 
"/>
<path fill="none" opacity="1.000000" stroke="#000000" stroke-linecap="round" stroke-linejoin="round" stroke-width="4.000000"
	d="
M631.000000,853.000000 
	C633.512268,855.057922 637.802185,854.530151 639.000000,858.500000 
"/>
<path fill="none" opacity="1.000000" stroke="#000000" stroke-linecap="round" stroke-linejoin="round" stroke-width="3.000000"
	d="
M253.500000,901.000000 
	C256.046814,902.562927 261.007050,902.083801 259.000000,907.500000 
"/>
<path fill="none" opacity="1.000000" stroke="#000000" stroke-linecap="round" stroke-linejoin="round" stroke-width="3.000000"
	d="
M353.500000,1016.500000 
	C355.500000,1017.452881 357.500000,1016.964722 359.500000,1016.500000 
"/>
<path fill="none" opacity="1.000000" stroke="#000000" stroke-linecap="round" stroke-linejoin="round" stroke-width="3.000000"
	d="
M145.500000,439.500000 
	C147.500000,440.333344 149.500000,441.166656 151.500000,442.000000 
"/>
<path fill="none" opacity="1.000000" stroke="#000000" stroke-linecap="round" stroke-linejoin="round" stroke-width="2.000000"
	d="
M490.000000,985.500000 
	C488.162537,988.333313 490.116669,991.166687 490.000000,994.000000 
"/>
<path fill="none" opacity="1.000000" stroke="#000000" stroke-linecap="round" stroke-linejoin="round" stroke-width="3.000000"
	d="
M659.500000,418.500000 
	C658.024414,422.602203 655.885437,419.406555 654.000000,419.000000 
"/>
<path fill="none" opacity="1.000000" stroke="#000000" stroke-linecap="round" stroke-linejoin="round" stroke-width="2.000000"
	d="
M179.500000,780.500000 
	C178.833328,782.333313 178.166672,784.166687 177.500000,786.000000 
"/>
<path fill="none" opacity="1.000000" stroke="#000000" stroke-linecap="round" stroke-linejoin="round" stroke-width="2.000000"
	d="
M389.000000,999.000000 
	C387.333344,1000.101990 385.666656,999.075928 383.806732,998.988770 
	C382.735168,1000.774658 381.617584,1002.637329 380.499969,1004.500000 
"/>
<path fill="none" opacity="1.000000" stroke="#000000" stroke-linecap="round" stroke-linejoin="round" stroke-width="2.000000"
	d="
M499.500000,983.500000 
	C500.604584,986.038757 496.788025,987.874451 498.500000,990.500000 
"/>
<path fill="none" opacity="1.000000" stroke="#000000" stroke-linecap="round" stroke-linejoin="round" stroke-width="4.000000"
	d="
M402.500000,993.000000 
	C408.230865,995.148315 404.203033,1000.069458 405.420471,1003.528015 
	C406.269287,1005.939331 403.472076,1005.133179 402.500000,1006.000000 
"/>
<path fill="none" opacity="1.000000" stroke="#000000" stroke-linecap="round" stroke-linejoin="round" stroke-width="2.000000"
	d="
M450.000000,780.500000 
	C449.966736,782.226685 450.261230,784.018921 449.000000,785.500000 
"/>
<path fill="none" opacity="1.000000" stroke="#000000" stroke-linecap="round" stroke-linejoin="round" stroke-width="3.000000"
	d="
M164.500000,781.500000 
	C163.653809,784.111694 160.576675,785.448608 160.500000,788.500000 
"/>
<path fill="none" opacity="1.000000" stroke="#000000" stroke-linecap="round" stroke-linejoin="round" stroke-width="2.000000"
	d="
M378.500000,597.500000 
	C377.478760,598.985840 377.458496,601.138977 375.500000,602.000000 
"/>
<path fill="none" opacity="1.000000" stroke="#000000" stroke-linecap="round" stroke-linejoin="round" stroke-width="3.000000"
	d="
M149.500000,308.000000 
	C145.890900,308.378754 142.749969,310.095154 139.500000,311.500000 
"/>
<path fill="none" opacity="1.000000" stroke="#000000" stroke-linecap="round" stroke-linejoin="round" stroke-width="3.000000"
	d="
M101.500000,408.500000 
	C102.845123,408.776337 104.190239,409.052704 105.752823,409.373718 
	C105.304138,411.202148 104.899063,412.852814 104.410362,414.844330 
	C107.929314,415.031128 109.586311,417.039185 109.500000,420.500000 
"/>
<path fill="none" opacity="1.000000" stroke="#000000" stroke-linecap="round" stroke-linejoin="round" stroke-width="3.000000"
	d="
M183.500000,430.000000 
	C179.077713,428.933868 178.797684,429.178894 179.500000,433.500000 
"/>
<path fill="none" opacity="1.000000" stroke="#000000" stroke-linecap="round" stroke-linejoin="round" stroke-width="3.000000"
	d="
M682.500000,369.500000 
	C681.500610,371.564301 682.120789,374.126923 680.500000,376.000000 
"/>
<path fill="none" opacity="1.000000" stroke="#000000" stroke-linecap="round" stroke-linejoin="round" stroke-width="2.000000"
	d="
M203.500000,313.000000 
	C202.651932,314.063019 203.020172,315.821045 201.500000,316.500000 
"/>
<path fill="none" opacity="1.000000" stroke="#000000" stroke-linecap="round" stroke-linejoin="round" stroke-width="3.000000"
	d="
M124.000000,323.500000 
	C122.833336,320.630280 121.212364,321.914490 120.619583,323.543518 
	C119.939369,325.412781 118.073921,326.215942 117.500000,328.000000 
"/>
<path fill="none" opacity="1.000000" stroke="#000000" stroke-linecap="round" stroke-linejoin="round" stroke-width="3.000000"
	d="
M354.500000,909.000000 
	C359.392914,911.293274 354.351532,912.683472 354.000000,914.500000 
"/>
<path fill="none" opacity="1.000000" stroke="#000000" stroke-linecap="round" stroke-linejoin="round" stroke-width="3.000000"
	d="
M185.000000,860.000000 
	C181.458359,862.170471 185.116547,863.686401 185.500000,865.500000 
"/>
<path fill="none" opacity="1.000000" stroke="#000000" stroke-linecap="round" stroke-linejoin="round" stroke-width="3.000000"
	d="
M326.500000,816.000000 
	C324.100464,816.566956 323.272980,818.182007 323.500000,820.500000 
"/>
<path fill="none" opacity="1.000000" stroke="#000000" stroke-linecap="round" stroke-linejoin="round" stroke-width="3.000000"
	d="
M157.500000,306.500000 
	C156.984375,308.500000 159.042953,310.500000 157.500000,312.500000 
"/>
</svg>